M48
METRIC,TZ
VER,1
FMAT,2
DETECT,ON
ATC,ON
T1C3.2000
T2C1.0160
T3C0.8890
T4C0.9949
T5C1.0668
T6C0.8000
T7C0.6000
%
T1
X53.3400Y24.8920
X105.4100Y29.9720
Y57.9120
X54.6100Y73.1520
T2
X44.1960Y63.7540
Y59.6900
Y61.7220
X44.7040Y38.8620
Y42.9260
Y40.8940
T3
X45.3242Y29.0682
Y31.6082
X85.3440Y73.1520
X98.0440
X100.5840
X95.5040
X90.4240
X92.9640
X87.8840
X73.6600
X76.2000
X78.7400
X68.5800
X71.1200
X66.0400
X60.9600
X63.5000
X58.4200
X85.3440Y24.8920
X72.6440
X70.1040
X75.1840
X80.2640
X77.7240
X82.8040
X92.9640
X95.5040
X100.5840
X98.0440
X103.1240
X104.1400Y52.3240
Y49.7840
X104.6480Y35.5600
Y38.1000
X44.1960Y71.4036
Y68.8636
X68.5800Y57.9120
X76.2000Y60.4520
Y65.5320
Y62.9920
X68.5800Y65.5320
Y60.4520
Y62.9920
X76.2000Y57.9120
X64.5160Y49.2760
X69.5960Y41.6560
X67.0560
X72.1360
X77.2160
X74.6760
X79.7560
X82.2960
X79.7560Y49.2760
X72.1360
X69.5960
X67.0560
X77.2160
X74.6760
X82.2960
X64.5160Y41.6560
T4
X103.1240Y73.1520
X81.2800
X67.5640Y24.8920
X90.4240
T5
X94.9960Y48.7680
Y46.4780
Y44.1880
T6
X51.9600Y36.5760
X60.9600Y36.5660
X51.9600Y34.0360
X60.9600Y34.0260
X59.8000Y67.0560
X50.8000Y67.0660
X50.9440Y64.5160
X59.9440Y64.5060
X59.8000Y69.5960
X50.8000Y69.6060
X77.2160Y53.0860
X69.8500
X77.2160Y37.3380
X69.8500
X94.9960Y41.5120
X94.9860Y32.5120
X83.0580Y29.7180
X86.8680
X83.0580Y32.2580
X89.9880Y46.2900
X98.5520Y30.2260
X95.2500
X51.9600Y39.1160
X60.9600Y39.1060
X76.4540Y30.2260
X89.9160Y44.1960
T7
X87.0000Y51.7500
X75.0000
X53.2500Y61.5000
X78.0000Y55.5000
X87.0000Y49.5000
X76.5000Y68.2500
X80.2500Y67.5000
X84.7500Y46.5000
X72.7500Y45.7500
Y53.2500
X81.7500Y63.7500
X74.2500Y69.0000
X86.2500Y41.2500
M30
