G04 Generated by Ultiboard 13.0 *
%FSLAX34Y34*%
%MOMM*%

%ADD10C,0.0001*%
%ADD11C,0.2540*%
%ADD12C,0.1270*%
%ADD13C,1.1852*%
%ADD14C,1.6088*%
%ADD15R,0.5291X0.5291*%
%ADD16C,0.9949*%
%ADD17C,1.4224*%
%ADD18C,1.4000*%
%ADD19R,1.4000X1.4000*%
%ADD20C,1.2446*%
%ADD21R,1.2446X1.2446*%
%ADD22C,1.0000*%


G04 ColorRGB 00FF00 for the following layer *
%LNCopper Top*%
%LPD*%
G54D10*
G54D11*
X746760Y492760D02*
X742500Y488500D01*
X742500Y487500D01*
X726620Y487500D01*
X721360Y492760D01*
X1041400Y523240D02*
X1035660Y517500D01*
X870000Y517500D01*
X750000Y517500D02*
X750000Y540000D01*
X742500Y547500D01*
X660000Y592500D02*
X652500Y600000D01*
X622500Y600000D01*
X615000Y607500D01*
X615000Y615000D01*
X607500Y622500D01*
X532500Y622500D01*
X532500Y615000D01*
X742500Y547500D02*
X663750Y547500D01*
X660000Y551250D01*
X660000Y592500D01*
X1041400Y497840D02*
X1036740Y502500D01*
X1027500Y502500D01*
X1020000Y510000D01*
X892500Y510000D01*
X885000Y502500D01*
X885000Y491250D01*
X885000Y487500D01*
X881250Y487500D01*
X877500Y480000D01*
X877500Y423750D01*
X873750Y420000D01*
X862500Y420000D01*
X862500Y412500D01*
X812800Y731520D02*
X812800Y722800D01*
X810000Y720000D01*
X810000Y712500D01*
X802500Y705000D01*
X780000Y648750D02*
X776250Y645000D01*
X772500Y645000D01*
X762000Y634500D01*
X762000Y629920D01*
X802500Y705000D02*
X783750Y705000D01*
X780000Y701250D01*
X780000Y648750D01*
X777240Y248920D02*
X772500Y253660D01*
X772500Y294300D01*
X764540Y302260D01*
X447040Y429260D02*
X442500Y433800D01*
X442500Y592500D01*
X441960Y593040D01*
X441960Y596900D01*
X980440Y731520D02*
X980440Y740440D01*
X980440Y744560D01*
X975000Y750000D01*
X630000Y750000D01*
X622500Y742500D01*
X622500Y690000D01*
X615000Y682500D01*
X615000Y663750D01*
X607500Y656250D01*
X607500Y652500D01*
X606880Y652500D01*
X599440Y645060D01*
X519600Y340360D02*
X512860Y340360D01*
X510000Y337500D01*
X487500Y337500D01*
X480000Y330000D01*
X480000Y307500D01*
X463182Y290682D01*
X453242Y290682D01*
X899160Y441960D02*
X892500Y435300D01*
X892500Y435000D01*
X885000Y427500D01*
X885000Y288750D01*
X881250Y285000D01*
X877500Y285000D01*
X870000Y277500D01*
X870000Y243750D01*
X870000Y240000D01*
X866250Y240000D01*
X862500Y236250D01*
X858750Y232500D01*
X795000Y232500D01*
X787500Y240000D01*
X780000Y240000D01*
X777240Y242760D01*
X777240Y248920D01*
X645160Y492760D02*
X645160Y487660D01*
X645000Y487500D01*
X645000Y416560D01*
X645160Y416560D01*
X746760Y416560D02*
X742700Y412500D01*
X725420Y412500D01*
X721360Y416560D01*
X830580Y322580D02*
X830580Y316920D01*
X832500Y315000D01*
X832500Y307500D01*
X830580Y305580D01*
X830580Y297180D01*
X508000Y696060D02*
X502500Y696060D01*
X502500Y705000D01*
X480000Y705000D01*
X472500Y712500D01*
X450000Y712500D01*
X448464Y714036D01*
X441960Y714036D01*
X797560Y416560D02*
X801000Y420000D01*
X802500Y420000D01*
X810000Y427500D01*
X810000Y431250D01*
X813750Y435000D01*
X855000Y435000D01*
X862500Y442500D01*
X825000Y525000D02*
X817500Y532500D01*
X817500Y637500D01*
X742500Y690000D02*
X750000Y690000D01*
X757500Y697500D01*
X757500Y727500D01*
X757980Y727500D01*
X762000Y731520D01*
X862500Y442500D02*
X862500Y468750D01*
X862500Y472500D01*
X858750Y472500D01*
X855000Y480000D01*
X855000Y521250D01*
X851250Y525000D01*
X825000Y525000D01*
X772160Y416560D02*
X772160Y412840D01*
X772500Y412500D01*
X772500Y382500D01*
X772160Y382160D01*
X772160Y373380D01*
X598000Y695960D02*
X592500Y690460D01*
X592500Y690000D01*
X547500Y690000D01*
X540000Y682500D01*
X525000Y682500D01*
X517500Y675000D01*
X508000Y675000D01*
X508000Y670660D01*
X762000Y604520D02*
X759020Y607500D01*
X720000Y607500D01*
X712500Y615000D01*
X712500Y697500D01*
X736600Y721600D01*
X736600Y731520D01*
X830580Y322580D02*
X825000Y328160D01*
X825000Y330000D01*
X817500Y352500D02*
X810000Y360000D01*
X757500Y360000D01*
X750000Y367500D01*
X750000Y413320D01*
X746760Y416560D01*
X825000Y330000D02*
X821250Y330000D01*
X817500Y333750D01*
X817500Y352500D01*
X711200Y731520D02*
X707180Y727500D01*
X705000Y727500D01*
X705000Y596250D01*
X701250Y592500D01*
X697500Y592500D01*
X690000Y585000D01*
X690000Y583320D01*
X685800Y579120D01*
X868680Y297180D02*
X862500Y303360D01*
X862500Y315000D01*
X840000Y337500D01*
X832500Y337500D01*
X825000Y345000D01*
X825000Y414520D01*
X822960Y416560D01*
X746760Y492760D02*
X742500Y488500D01*
X742500Y420000D01*
X743320Y420000D01*
X746760Y416560D01*
X453242Y316082D02*
X450000Y319324D01*
X450000Y382500D01*
X447040Y385460D01*
X447040Y388620D01*
X509440Y645160D02*
X502660Y645160D01*
X502500Y645000D01*
X472500Y645000D01*
X465000Y637500D01*
X465000Y630000D01*
X450000Y617220D01*
X447780Y617220D01*
X441960Y617220D01*
X868680Y297180D02*
X868680Y292500D01*
X862500Y292500D01*
X862500Y255000D01*
X859520Y255000D01*
X853440Y248920D01*
X828040Y248920D02*
X818920Y248920D01*
X817500Y247500D01*
X810000Y247500D01*
X808580Y248920D01*
X802640Y248920D01*
X780000Y555000D02*
X671250Y555000D01*
X667500Y558750D01*
X667500Y611250D01*
X671250Y615000D01*
X675000Y615000D01*
X685800Y625800D01*
X685800Y629920D01*
X949960Y441880D02*
X945000Y436920D01*
X945000Y420000D01*
X945080Y420000D01*
X949960Y415120D01*
X952500Y302260D02*
X952500Y255000D01*
X955040Y252460D01*
X955040Y248920D01*
X830580Y297180D02*
X825900Y292500D01*
X825000Y292500D01*
X825000Y255000D01*
X828040Y251960D01*
X828040Y248920D01*
X787400Y731520D02*
X783380Y727500D01*
X780000Y727500D01*
X780000Y720000D01*
X765000Y705000D01*
X765000Y682500D01*
X802500Y675000D02*
X802500Y525000D01*
X810000Y517500D01*
X840000Y517500D01*
X847500Y510000D01*
X847500Y465000D01*
X727500Y457500D02*
X682500Y457500D01*
X675000Y450000D01*
X675000Y420000D01*
X674000Y420000D01*
X670560Y416560D01*
X904240Y731520D02*
X900220Y727500D01*
X900000Y727500D01*
X900000Y720000D01*
X885000Y705000D01*
X832500Y705000D01*
X825000Y697500D01*
X795000Y697500D01*
X787500Y690000D01*
X787500Y645000D01*
X795000Y637500D01*
X795000Y502500D01*
X797560Y499940D01*
X797560Y492760D01*
X772160Y530860D02*
X772160Y525340D01*
X772500Y525000D01*
X772500Y502500D01*
X772160Y502160D01*
X772160Y492760D01*
X441960Y688636D02*
X441960Y683040D01*
X442500Y682500D01*
X442500Y645000D01*
X441960Y644460D01*
X441960Y637540D01*
X949960Y464780D02*
X945000Y459820D01*
X945000Y457500D01*
X899880Y457500D01*
X899880Y462900D01*
X727500Y532500D02*
X727500Y525000D01*
X720000Y517500D01*
X585000Y517500D01*
X577500Y510000D01*
X577500Y412500D01*
X570000Y405000D01*
X510000Y405000D01*
X506250Y397500D01*
X502500Y393750D01*
X502500Y360000D01*
X510000Y352500D01*
X528750Y352500D01*
X532500Y348750D01*
X532500Y330000D01*
X540000Y322500D01*
X735000Y322500D01*
X742500Y315000D01*
X742500Y255000D01*
X745760Y255000D01*
X751840Y248920D01*
X660000Y660000D02*
X637500Y660000D01*
X630000Y652500D01*
X622500Y652500D01*
X615000Y645000D01*
X615000Y633750D01*
X611250Y630000D01*
X480000Y630000D01*
X472500Y622500D01*
X472500Y615000D01*
X465000Y607500D01*
X457500Y607500D01*
X446900Y596900D01*
X441960Y596900D01*
X609600Y365660D02*
X607500Y365660D01*
X607500Y340260D01*
X609600Y340260D01*
X698500Y373380D02*
X690000Y381880D01*
X690000Y412500D01*
X691900Y412500D01*
X695960Y416560D01*
X840000Y427500D02*
X829060Y416560D01*
X822960Y416560D01*
X870000Y495000D02*
X870000Y431250D01*
X866250Y427500D01*
X840000Y427500D01*
X645160Y416560D02*
X645160Y412500D01*
X592500Y412500D01*
X585000Y405000D01*
X585000Y401250D01*
X581250Y397500D01*
X547500Y397500D01*
X540000Y390000D01*
X540000Y375000D01*
X532500Y367500D01*
X525000Y367500D01*
X523260Y365760D01*
X519600Y365760D01*
X685800Y655320D02*
X682500Y658620D01*
X682500Y660000D01*
X660000Y720000D02*
X660400Y720400D01*
X660400Y731520D01*
X682500Y660000D02*
X660000Y660000D01*
X660000Y720000D01*
X1031240Y248920D02*
X1027500Y252660D01*
X1027500Y262500D01*
X1020000Y270000D01*
X1005000Y270000D01*
X997500Y277500D01*
X997500Y311250D01*
X993750Y315000D01*
X982500Y315000D01*
X975000Y322500D01*
X949860Y322500D01*
X949860Y325120D01*
X985520Y302260D02*
X985520Y295520D01*
X982500Y292500D01*
X982500Y255000D01*
X980440Y252940D01*
X980440Y248920D01*
G54D12*
X391160Y217001D02*
X391160Y271674D01*
X391160Y217001D02*
X461556Y217001D01*
X1095121Y217001D02*
X1024725Y217001D01*
X1095121Y217001D02*
X1095121Y271674D01*
X1095121Y763735D02*
X1095121Y709062D01*
X1095121Y763735D02*
X1024725Y763735D01*
X391160Y763735D02*
X461556Y763735D01*
X391160Y763735D02*
X391160Y709062D01*
X341160Y217001D02*
X241160Y217001D01*
X291160Y167001D02*
X291160Y267001D01*
X253660Y217001D02*
G75*
D01*
G02X253660Y217001I37500J0*
G01*
X1145121Y217001D02*
X1245121Y217001D01*
X1195121Y167001D02*
X1195121Y267001D01*
X1157621Y217001D02*
G75*
D01*
G02X1157621Y217001I37500J0*
G01*
X1182621Y217001D02*
G75*
D01*
G02X1182621Y217001I12500J0*
G01*
X341160Y763735D02*
X241160Y763735D01*
X291160Y713735D02*
X291160Y813735D01*
X253660Y763735D02*
G75*
D01*
G02X253660Y763735I37500J0*
G01*
X266160Y763735D02*
G75*
D01*
G02X266160Y763735I25000J0*
G01*
X278660Y763735D02*
G75*
D01*
G02X278660Y763735I12500J0*
G01*
G54D13*
X441960Y637540D03*
X441960Y596900D03*
X441960Y617220D03*
X447040Y388620D03*
X447040Y429260D03*
X447040Y408940D03*
G54D14*
X453242Y290682D03*
X453242Y316082D03*
X853440Y731520D03*
X980440Y731520D03*
X1005840Y731520D03*
X955040Y731520D03*
X904240Y731520D03*
X929640Y731520D03*
X878840Y731520D03*
X736600Y731520D03*
X762000Y731520D03*
X787400Y731520D03*
X685800Y731520D03*
X711200Y731520D03*
X660400Y731520D03*
X609600Y731520D03*
X635000Y731520D03*
X584200Y731520D03*
X853440Y248920D03*
X726440Y248920D03*
X701040Y248920D03*
X751840Y248920D03*
X802640Y248920D03*
X777240Y248920D03*
X828040Y248920D03*
X929640Y248920D03*
X955040Y248920D03*
X1005840Y248920D03*
X980440Y248920D03*
X1031240Y248920D03*
X1041400Y523240D03*
X1041400Y497840D03*
X1046480Y355600D03*
X1046480Y381000D03*
X441960Y714036D03*
X441960Y688636D03*
G54D15*
X1031240Y731520D03*
X812800Y731520D03*
X675640Y248920D03*
X904240Y248920D03*
G54D16*
X1028595Y728875D02*
X1033885Y728875D01*
X1033885Y734165D01*
X1028595Y734165D01*
X1028595Y728875D01*D02*
X810155Y728875D02*
X815445Y728875D01*
X815445Y734165D01*
X810155Y734165D01*
X810155Y728875D01*D02*
X672995Y246275D02*
X678285Y246275D01*
X678285Y251565D01*
X672995Y251565D01*
X672995Y246275D01*D02*
X901595Y246275D02*
X906885Y246275D01*
X906885Y251565D01*
X901595Y251565D01*
X901595Y246275D01*D02*
G54D17*
X949960Y487680D03*
X949960Y464780D03*
X949960Y441880D03*
G54D18*
X519600Y365760D03*
X519600Y340360D03*
X598000Y670560D03*
X509440Y645160D03*
X598000Y695960D03*
X772160Y530860D03*
X772160Y373380D03*
X949960Y415120D03*
X830580Y297180D03*
X830580Y322580D03*
X985520Y302260D03*
X519600Y391160D03*
X899160Y441960D03*
G54D19*
X609600Y365660D03*
X609600Y340260D03*
X508000Y670660D03*
X599440Y645060D03*
X508000Y696060D03*
X698500Y530860D03*
X698500Y373380D03*
X949860Y325120D03*
X868680Y297180D03*
X899880Y462900D03*
X952500Y302260D03*
X609600Y391060D03*
X764540Y302260D03*
G54D20*
X685800Y579120D03*
X762000Y604520D03*
X762000Y655320D03*
X762000Y629920D03*
X685800Y655320D03*
X685800Y604520D03*
X685800Y629920D03*
X645160Y492760D03*
X695960Y416560D03*
X670560Y416560D03*
X721360Y416560D03*
X772160Y416560D03*
X746760Y416560D03*
X797560Y416560D03*
X822960Y416560D03*
X797560Y492760D03*
X721360Y492760D03*
X695960Y492760D03*
X670560Y492760D03*
X772160Y492760D03*
X746760Y492760D03*
X822960Y492760D03*
G54D21*
X762000Y579120D03*
X645160Y416560D03*
G54D22*
X870000Y517500D03*
X750000Y517500D03*
X532500Y615000D03*
X780000Y555000D03*
X870000Y495000D03*
X765000Y682500D03*
X802500Y675000D03*
X847500Y465000D03*
X727500Y457500D03*
X727500Y532500D03*
X817500Y637500D03*
X742500Y690000D03*
X862500Y412500D03*

M02*
