G04 Generated by Ultiboard 13.0 *
%FSLAX34Y34*%
%MOMM*%

%ADD10C,0.0001*%
%ADD11C,0.2540*%
%ADD12C,0.1270*%
%ADD13C,1.1852*%
%ADD14C,1.6088*%
%ADD15R,0.5291X0.5291*%
%ADD16C,0.9949*%
%ADD17C,1.4224*%
%ADD18C,1.4000*%
%ADD19C,1.2446*%
%ADD20C,1.0000*%


G04 ColorRGB 0000FF for the following layer *
%LNCopper Bottom*%
%LPD*%
G54D10*
G54D11*
X853440Y731520D02*
X859020Y731520D01*
X862500Y735000D01*
X862500Y742500D01*
X870000Y750000D01*
X840000Y697500D02*
X832500Y690000D01*
X817500Y615000D02*
X787500Y615000D01*
X780000Y607500D01*
X780000Y555000D01*
X881250Y697500D02*
X840000Y697500D01*
X832500Y690000D02*
X832500Y633750D01*
X832500Y630000D01*
X828750Y630000D01*
X817500Y615000D01*
X949960Y487680D02*
X945000Y482720D01*
X945000Y480000D01*
X761250Y472500D02*
X757500Y476250D01*
X757500Y480000D01*
X750000Y487500D01*
X750000Y489520D01*
X746760Y492760D01*
X945000Y480000D02*
X843750Y480000D01*
X836250Y472500D01*
X761250Y472500D01*
X765000Y682500D02*
X802500Y682500D01*
X802500Y675000D01*
X847500Y465000D02*
X727500Y465000D01*
X727500Y457500D01*
X822960Y416560D02*
X818900Y412500D01*
X817500Y412500D01*
X817500Y405000D01*
X810000Y397500D01*
X663750Y397500D01*
X660000Y401250D01*
X660000Y405000D01*
X652500Y412500D01*
X649220Y412500D01*
X645160Y416560D01*
X685800Y731520D02*
X685800Y723300D01*
X682500Y720000D01*
X682500Y712500D01*
X667500Y697500D01*
X667500Y618750D01*
X671250Y615000D01*
X675000Y615000D01*
X682500Y607500D01*
X682820Y607500D01*
X685800Y604520D01*
X1046480Y355600D02*
X1038100Y355600D01*
X1035000Y352500D01*
X982500Y352500D01*
X975000Y360000D01*
X795000Y367500D02*
X787500Y360000D01*
X611250Y322500D02*
X525000Y322500D01*
X519600Y330000D01*
X519600Y332100D01*
X519600Y340360D01*
X975000Y360000D02*
X975000Y378750D01*
X971250Y382500D01*
X798750Y382500D01*
X795000Y378750D01*
X795000Y367500D01*
X787500Y360000D02*
X633750Y360000D01*
X630000Y356250D01*
X630000Y352500D01*
X626250Y345000D01*
X622500Y341250D01*
X622500Y333750D01*
X611250Y322500D01*
X878840Y731520D02*
X878840Y721340D01*
X877500Y720000D01*
X877500Y712500D01*
X870000Y705000D01*
X705000Y705000D01*
X693750Y750000D02*
X630000Y750000D01*
X622500Y742500D01*
X622500Y723750D01*
X622500Y720000D01*
X626250Y720000D01*
X630000Y712500D01*
X630000Y525000D01*
X637500Y517500D01*
X656250Y517500D01*
X660000Y513750D01*
X660000Y510000D01*
X670560Y499440D01*
X670560Y492760D01*
X1046480Y381000D02*
X1056000Y381000D01*
X1057500Y382500D01*
X1065000Y382500D01*
X1072500Y375000D01*
X1072500Y367500D01*
X1065000Y360000D01*
X1065000Y348750D01*
X1065000Y345000D01*
X1061250Y345000D01*
X1057500Y337500D01*
X1038750Y337500D01*
X1035000Y337500D01*
X1035000Y341250D01*
X1027500Y345000D01*
X971250Y345000D01*
X967500Y348750D01*
X967500Y367500D01*
X960000Y375000D01*
X810000Y375000D01*
X802500Y367500D01*
X802500Y356250D01*
X798750Y352500D01*
X645000Y352500D01*
X637500Y345000D01*
X637500Y337500D01*
X630000Y330000D01*
X630000Y322500D01*
X622500Y318750D01*
X618750Y315000D01*
X465000Y315000D01*
X463918Y316082D01*
X453242Y316082D01*
X929640Y731520D02*
X933660Y727500D01*
X937500Y727500D01*
X937500Y517500D01*
X945000Y510000D01*
X967500Y510000D01*
X975000Y502500D01*
X975000Y397500D01*
X967500Y390000D01*
X615000Y390000D01*
X613940Y391060D01*
X609600Y391060D01*
X762000Y655320D02*
X759180Y652500D01*
X720000Y652500D01*
X712500Y645000D01*
X712500Y555000D01*
X727500Y540000D01*
X727500Y532500D01*
X645160Y492760D02*
X645160Y502340D01*
X637500Y510000D01*
X622500Y652500D02*
X604440Y670560D01*
X598000Y670560D01*
X637500Y510000D02*
X626250Y510000D01*
X622500Y513750D01*
X622500Y652500D01*
X721360Y492760D02*
X721360Y501140D01*
X720000Y502500D01*
X720000Y510000D01*
X712500Y517500D01*
X712500Y536250D01*
X705000Y641250D02*
X701250Y645000D01*
X697500Y645000D01*
X690000Y652500D01*
X688620Y652500D01*
X685800Y655320D01*
X712500Y536250D02*
X705000Y543750D01*
X705000Y641250D01*
X817500Y637500D02*
X817500Y682500D01*
X810000Y690000D01*
X780000Y690000D01*
X772500Y697500D01*
X742500Y697500D01*
X742500Y690000D01*
X822960Y492760D02*
X830260Y492760D01*
X832500Y495000D01*
X870000Y495000D01*
X698500Y530860D02*
X698500Y526000D01*
X697500Y525000D01*
X697500Y502500D01*
X695960Y500960D01*
X695960Y492760D01*
X870000Y517500D02*
X750000Y517500D01*
X532500Y615000D02*
X532500Y682500D01*
X517500Y696060D01*
X516060Y696060D01*
X508000Y696060D01*
X862500Y412500D02*
X855000Y412500D01*
X847500Y420000D01*
X847500Y435000D01*
X840000Y442500D01*
X840000Y450000D01*
X832500Y457500D01*
X750000Y457500D01*
X735000Y442500D01*
X720000Y442500D01*
X705000Y457500D01*
X622500Y457500D01*
X615000Y465000D01*
X615000Y592500D01*
X607500Y600000D01*
X472500Y600000D01*
X465000Y607500D01*
X465000Y630000D01*
X457500Y637500D01*
X441960Y637500D01*
X441960Y637540D01*
X519600Y391160D02*
X519600Y395400D01*
X510000Y405000D01*
X450000Y405000D01*
X450000Y405980D01*
X447040Y408940D01*
X705000Y705000D02*
X698770Y711230D01*
X698770Y744980D02*
X693750Y750000D01*
X698770Y711230D02*
X698770Y744980D01*
X892500Y712260D02*
X888990Y705240D01*
X881250Y697500D01*
X892500Y723750D02*
X892500Y712260D01*
X891230Y749256D02*
X890486Y750000D01*
X891230Y725020D02*
X892500Y723750D01*
X870000Y750000D02*
X890486Y750000D01*
X891230Y749256D02*
X891230Y725020D01*
G54D12*
X391160Y217001D02*
X391160Y271674D01*
X391160Y217001D02*
X461556Y217001D01*
X1095121Y217001D02*
X1024725Y217001D01*
X1095121Y217001D02*
X1095121Y271674D01*
X1095121Y763735D02*
X1095121Y709062D01*
X1095121Y763735D02*
X1024725Y763735D01*
X391160Y763735D02*
X461556Y763735D01*
X391160Y763735D02*
X391160Y709062D01*
X341160Y217001D02*
X241160Y217001D01*
X291160Y167001D02*
X291160Y267001D01*
X253660Y217001D02*
G75*
D01*
G02X253660Y217001I37500J0*
G01*
X1145121Y217001D02*
X1245121Y217001D01*
X1195121Y167001D02*
X1195121Y267001D01*
X1157621Y217001D02*
G75*
D01*
G02X1157621Y217001I37500J0*
G01*
X1182621Y217001D02*
G75*
D01*
G02X1182621Y217001I12500J0*
G01*
X341160Y763735D02*
X241160Y763735D01*
X291160Y713735D02*
X291160Y813735D01*
X253660Y763735D02*
G75*
D01*
G02X253660Y763735I37500J0*
G01*
X266160Y763735D02*
G75*
D01*
G02X266160Y763735I25000J0*
G01*
X278660Y763735D02*
G75*
D01*
G02X278660Y763735I12500J0*
G01*
G54D13*
X441960Y637540D03*
X441960Y596900D03*
X441960Y617220D03*
X447040Y388620D03*
X447040Y429260D03*
X447040Y408940D03*
G54D14*
X453242Y290682D03*
X453242Y316082D03*
X853440Y731520D03*
X980440Y731520D03*
X1005840Y731520D03*
X955040Y731520D03*
X904240Y731520D03*
X929640Y731520D03*
X878840Y731520D03*
X736600Y731520D03*
X762000Y731520D03*
X787400Y731520D03*
X685800Y731520D03*
X711200Y731520D03*
X660400Y731520D03*
X609600Y731520D03*
X635000Y731520D03*
X584200Y731520D03*
X853440Y248920D03*
X726440Y248920D03*
X701040Y248920D03*
X751840Y248920D03*
X802640Y248920D03*
X777240Y248920D03*
X828040Y248920D03*
X929640Y248920D03*
X955040Y248920D03*
X1005840Y248920D03*
X980440Y248920D03*
X1031240Y248920D03*
X1041400Y523240D03*
X1041400Y497840D03*
X1046480Y355600D03*
X1046480Y381000D03*
X441960Y714036D03*
X441960Y688636D03*
G54D15*
X1031240Y731520D03*
X812800Y731520D03*
X675640Y248920D03*
X904240Y248920D03*
G54D16*
X1028595Y728875D02*
X1033885Y728875D01*
X1033885Y734165D01*
X1028595Y734165D01*
X1028595Y728875D01*D02*
X810155Y728875D02*
X815445Y728875D01*
X815445Y734165D01*
X810155Y734165D01*
X810155Y728875D01*D02*
X672995Y246275D02*
X678285Y246275D01*
X678285Y251565D01*
X672995Y251565D01*
X672995Y246275D01*D02*
X901595Y246275D02*
X906885Y246275D01*
X906885Y251565D01*
X901595Y251565D01*
X901595Y246275D01*D02*
G54D17*
X949960Y487680D03*
X949960Y464780D03*
X949960Y441880D03*
G54D18*
X519600Y365760D03*
X609600Y365660D03*
X519600Y340360D03*
X609600Y340260D03*
X598000Y670560D03*
X508000Y670660D03*
X509440Y645160D03*
X599440Y645060D03*
X598000Y695960D03*
X508000Y696060D03*
X772160Y530860D03*
X698500Y530860D03*
X772160Y373380D03*
X698500Y373380D03*
X949960Y415120D03*
X949860Y325120D03*
X830580Y297180D03*
X868680Y297180D03*
X830580Y322580D03*
X899880Y462900D03*
X985520Y302260D03*
X952500Y302260D03*
X519600Y391160D03*
X609600Y391060D03*
X764540Y302260D03*
X899160Y441960D03*
G54D19*
X685800Y579120D03*
X762000Y604520D03*
X762000Y655320D03*
X762000Y629920D03*
X685800Y655320D03*
X685800Y604520D03*
X685800Y629920D03*
X762000Y579120D03*
X645160Y492760D03*
X695960Y416560D03*
X670560Y416560D03*
X721360Y416560D03*
X772160Y416560D03*
X746760Y416560D03*
X797560Y416560D03*
X822960Y416560D03*
X797560Y492760D03*
X721360Y492760D03*
X695960Y492760D03*
X670560Y492760D03*
X772160Y492760D03*
X746760Y492760D03*
X822960Y492760D03*
X645160Y416560D03*
G54D20*
X870000Y517500D03*
X750000Y517500D03*
X532500Y615000D03*
X780000Y555000D03*
X870000Y495000D03*
X765000Y682500D03*
X802500Y675000D03*
X847500Y465000D03*
X727500Y457500D03*
X727500Y532500D03*
X817500Y637500D03*
X742500Y690000D03*
X862500Y412500D03*

M02*
