G04 Generated by Ultiboard 13.0 *
%FSLAX34Y34*%
%MOMM*%

%ADD11C,3.2000*%
%ADD12C,1.0160*%
%ADD13C,0.8890*%
%ADD14C,0.9949*%
%ADD15C,1.0668*%
%ADD16C,0.8000*%
%ADD17C,0.6000*%


G04 ColorRGB 000000 for the following layer *
%LNDrill-Copper Top-Copper Bottom*%
%LPD*%
G54D11*
X533400Y248920D03*
X1054100Y299720D03*
X1054100Y579120D03*
X546100Y731520D03*
G54D12*
X441960Y637540D03*
X441960Y596900D03*
X441960Y617220D03*
X447040Y388620D03*
X447040Y429260D03*
X447040Y408940D03*
G54D13*
X453242Y290682D03*
X453242Y316082D03*
X853440Y731520D03*
X980440Y731520D03*
X1005840Y731520D03*
X955040Y731520D03*
X904240Y731520D03*
X929640Y731520D03*
X878840Y731520D03*
X736600Y731520D03*
X762000Y731520D03*
X787400Y731520D03*
X685800Y731520D03*
X711200Y731520D03*
X660400Y731520D03*
X609600Y731520D03*
X635000Y731520D03*
X584200Y731520D03*
X853440Y248920D03*
X726440Y248920D03*
X701040Y248920D03*
X751840Y248920D03*
X802640Y248920D03*
X777240Y248920D03*
X828040Y248920D03*
X929640Y248920D03*
X955040Y248920D03*
X1005840Y248920D03*
X980440Y248920D03*
X1031240Y248920D03*
X1041400Y523240D03*
X1041400Y497840D03*
X1046480Y355600D03*
X1046480Y381000D03*
X441960Y714036D03*
X441960Y688636D03*
X685800Y579120D03*
X762000Y604520D03*
X762000Y655320D03*
X762000Y629920D03*
X685800Y655320D03*
X685800Y604520D03*
X685800Y629920D03*
X762000Y579120D03*
X645160Y492760D03*
X695960Y416560D03*
X670560Y416560D03*
X721360Y416560D03*
X772160Y416560D03*
X746760Y416560D03*
X797560Y416560D03*
X822960Y416560D03*
X797560Y492760D03*
X721360Y492760D03*
X695960Y492760D03*
X670560Y492760D03*
X772160Y492760D03*
X746760Y492760D03*
X822960Y492760D03*
X645160Y416560D03*
G54D14*
X1031240Y731520D03*
X812800Y731520D03*
X675640Y248920D03*
X904240Y248920D03*
G54D15*
X949960Y487680D03*
X949960Y464780D03*
X949960Y441880D03*
G54D16*
X519600Y365760D03*
X609600Y365660D03*
X519600Y340360D03*
X609600Y340260D03*
X598000Y670560D03*
X508000Y670660D03*
X509440Y645160D03*
X599440Y645060D03*
X598000Y695960D03*
X508000Y696060D03*
X772160Y530860D03*
X698500Y530860D03*
X772160Y373380D03*
X698500Y373380D03*
X949960Y415120D03*
X949860Y325120D03*
X830580Y297180D03*
X868680Y297180D03*
X830580Y322580D03*
X899880Y462900D03*
X985520Y302260D03*
X952500Y302260D03*
X519600Y391160D03*
X609600Y391060D03*
X764540Y302260D03*
X899160Y441960D03*
G54D17*
X870000Y517500D03*
X750000Y517500D03*
X532500Y615000D03*
X780000Y555000D03*
X870000Y495000D03*
X765000Y682500D03*
X802500Y675000D03*
X847500Y465000D03*
X727500Y457500D03*
X727500Y532500D03*
X817500Y637500D03*
X742500Y690000D03*
X862500Y412500D03*

M02*
