G04 Generated by Ultiboard 13.0 *
%FSLAX34Y34*%
%MOMM*%

%ADD10C,0.0001*%
%ADD11C,0.1270*%


G04 ColorRGB CC99CC for the following layer *
%LNKeep-in/keep-out*%
%LPD*%
G54D10*
G54D11*
X391160Y217001D02*
X391160Y271674D01*
X391160Y217001D02*
X461556Y217001D01*
X1095121Y217001D02*
X1024725Y217001D01*
X1095121Y217001D02*
X1095121Y271674D01*
X1095121Y763735D02*
X1095121Y709062D01*
X1095121Y763735D02*
X1024725Y763735D01*
X391160Y763735D02*
X461556Y763735D01*
X391160Y763735D02*
X391160Y709062D01*
X341160Y217001D02*
X241160Y217001D01*
X291160Y167001D02*
X291160Y267001D01*
X253660Y217001D02*
G75*
D01*
G02X253660Y217001I37500J0*
G01*
X1145121Y217001D02*
X1245121Y217001D01*
X1195121Y167001D02*
X1195121Y267001D01*
X1157621Y217001D02*
G75*
D01*
G02X1157621Y217001I37500J0*
G01*
X1182621Y217001D02*
G75*
D01*
G02X1182621Y217001I12500J0*
G01*
X341160Y763735D02*
X241160Y763735D01*
X291160Y713735D02*
X291160Y813735D01*
X253660Y763735D02*
G75*
D01*
G02X253660Y763735I37500J0*
G01*
X266160Y763735D02*
G75*
D01*
G02X266160Y763735I25000J0*
G01*
X278660Y763735D02*
G75*
D01*
G02X278660Y763735I12500J0*
G01*

M02*
