G04 Generated by Ultiboard 13.0 *
%FSLAX34Y34*%
%MOMM*%

%ADD10C,0.0001*%
%ADD11C,0.1778*%
%ADD12C,0.0010*%
%ADD13C,0.2032*%
%ADD14C,0.1000*%
%ADD15C,0.1270*%


G04 ColorRGB 0000FF for the following layer *
%LN3D-Info Top*%
%LPD*%
G54D10*
G54D11*
X471170Y617220D02*
X471059Y619766D01*
X470726Y622292D01*
X470175Y624780D01*
X469408Y627210D01*
X468433Y629565D01*
X467257Y631825D01*
X465887Y633974D01*
X464336Y635996D01*
X462615Y637875D01*
X460736Y639596D01*
X458714Y641147D01*
X456565Y642517D01*
X454305Y643693D01*
X451950Y644668D01*
X449520Y645435D01*
X447032Y645986D01*
X444506Y646319D01*
X441960Y646430D01*
X439414Y646319D01*
X436888Y645986D01*
X434400Y645435D01*
X431970Y644668D01*
X429615Y643693D01*
X427355Y642517D01*
X425206Y641147D01*
X423184Y639596D01*
X421305Y637875D01*
X419584Y635996D01*
X418033Y633974D01*
X416663Y631825D01*
X415487Y629565D01*
X414512Y627210D01*
X413745Y624780D01*
X413194Y622292D01*
X412861Y619766D01*
X412750Y617220D01*
X412861Y614674D01*
X413194Y612148D01*
X413745Y609660D01*
X414512Y607230D01*
X415487Y604875D01*
X416663Y602615D01*
X418033Y600466D01*
X419584Y598444D01*
X421305Y596565D01*
X423184Y594844D01*
X425206Y593293D01*
X427355Y591923D01*
X429615Y590747D01*
X431970Y589772D01*
X434400Y589005D01*
X436888Y588454D01*
X439414Y588121D01*
X441960Y588010D01*
X444506Y588121D01*
X447032Y588454D01*
X449520Y589005D01*
X451950Y589772D01*
X454305Y590747D01*
X456565Y591923D01*
X458714Y593293D01*
X460736Y594844D01*
X462615Y596565D01*
X464336Y598444D01*
X465887Y600466D01*
X467257Y602615D01*
X468433Y604875D01*
X469408Y607230D01*
X470175Y609660D01*
X470726Y612148D01*
X471059Y614674D01*
X471170Y617220D01*
X471170Y617220D01*
X427304Y343324D02*
X423921Y340911D01*
X420762Y338213D01*
X417850Y335249D01*
X415207Y332044D01*
X412854Y328620D01*
X410808Y325003D01*
X409085Y321223D01*
X407698Y317306D01*
X406658Y313284D01*
X405972Y309186D01*
X405646Y305044D01*
X405682Y300890D01*
X406081Y296754D01*
X406838Y292669D01*
X407948Y288665D01*
X409403Y284774D01*
X411192Y281024D01*
X413300Y277444D01*
X415713Y274061D01*
X418411Y270902D01*
X421375Y267990D01*
X424581Y265347D01*
X428005Y262994D01*
X431621Y260948D01*
X435401Y259225D01*
X439318Y257838D01*
X443340Y256798D01*
X447438Y256112D01*
X451580Y255786D01*
X455735Y255822D01*
X459870Y256221D01*
X463955Y256978D01*
X467959Y258088D01*
X471851Y259543D01*
X475601Y261332D01*
X479181Y263440D01*
X482563Y265853D01*
X485722Y268551D01*
X488634Y271515D01*
X491277Y274721D01*
X493630Y278145D01*
X495676Y281761D01*
X497399Y285541D01*
X498786Y289458D01*
X499826Y293480D01*
X500512Y297578D01*
X500838Y301720D01*
X500802Y305875D01*
X500404Y310010D01*
X499646Y314095D01*
X498536Y318099D01*
X497081Y321991D01*
X495292Y325741D01*
X493184Y329321D01*
X490771Y332703D01*
X488073Y335862D01*
X485109Y338774D01*
X481904Y341417D01*
X479181Y343324D01*
X412314Y303282D02*
G75*
D01*
G02X412314Y303282I40528J0*
G01*
X478642Y343599D02*
X427842Y343599D01*
X1067338Y470598D02*
X1070721Y473011D01*
X1073880Y475709D01*
X1076792Y478673D01*
X1079435Y481879D01*
X1081788Y485303D01*
X1083834Y488919D01*
X1085557Y492699D01*
X1086944Y496616D01*
X1087984Y500638D01*
X1088670Y504736D01*
X1088996Y508878D01*
X1088960Y513033D01*
X1088562Y517168D01*
X1087804Y521253D01*
X1086694Y525257D01*
X1085239Y529149D01*
X1083450Y532899D01*
X1081342Y536478D01*
X1078929Y539861D01*
X1076231Y543020D01*
X1073267Y545932D01*
X1070061Y548575D01*
X1066637Y550928D01*
X1063021Y552974D01*
X1059241Y554697D01*
X1055324Y556084D01*
X1051302Y557124D01*
X1047204Y557810D01*
X1043062Y558136D01*
X1038907Y558100D01*
X1034772Y557702D01*
X1030687Y556944D01*
X1026683Y555834D01*
X1022791Y554379D01*
X1019041Y552590D01*
X1015462Y550482D01*
X1012079Y548069D01*
X1008920Y545371D01*
X1006008Y542407D01*
X1003365Y539201D01*
X1001012Y535777D01*
X998966Y532161D01*
X997243Y528381D01*
X995856Y524464D01*
X994816Y520442D01*
X994130Y516344D01*
X993804Y512202D01*
X993840Y508047D01*
X994238Y503912D01*
X994996Y499827D01*
X996106Y495823D01*
X997561Y491931D01*
X999350Y488181D01*
X1001458Y484602D01*
X1003871Y481219D01*
X1006569Y478060D01*
X1009533Y475148D01*
X1012739Y472505D01*
X1015462Y470598D01*
X1001272Y510640D02*
G75*
D01*
G02X1001272Y510640I40528J0*
G01*
X1016000Y470323D02*
X1066800Y470323D01*
X1020542Y408242D02*
X1017159Y405829D01*
X1014000Y403131D01*
X1011088Y400167D01*
X1008445Y396961D01*
X1006092Y393537D01*
X1004046Y389921D01*
X1002323Y386141D01*
X1000936Y382224D01*
X999896Y378202D01*
X999210Y374104D01*
X998884Y369962D01*
X998920Y365807D01*
X999318Y361672D01*
X1000076Y357587D01*
X1001186Y353583D01*
X1002641Y349691D01*
X1004430Y345941D01*
X1006538Y342362D01*
X1008951Y338979D01*
X1011649Y335820D01*
X1014613Y332908D01*
X1017819Y330265D01*
X1021243Y327912D01*
X1024859Y325866D01*
X1028639Y324143D01*
X1032556Y322756D01*
X1036578Y321716D01*
X1040676Y321030D01*
X1044818Y320704D01*
X1048973Y320740D01*
X1053108Y321138D01*
X1057193Y321896D01*
X1061197Y323006D01*
X1065089Y324461D01*
X1068839Y326250D01*
X1072418Y328358D01*
X1075801Y330771D01*
X1078960Y333469D01*
X1081872Y336433D01*
X1084515Y339639D01*
X1086868Y343063D01*
X1088914Y346679D01*
X1090637Y350459D01*
X1092024Y354376D01*
X1093064Y358398D01*
X1093750Y362496D01*
X1094076Y366638D01*
X1094040Y370793D01*
X1093642Y374928D01*
X1092884Y379013D01*
X1091774Y383017D01*
X1090319Y386909D01*
X1088530Y390659D01*
X1086422Y394238D01*
X1084009Y397621D01*
X1081311Y400780D01*
X1078347Y403692D01*
X1075141Y406335D01*
X1072418Y408242D01*
X1005552Y368200D02*
G75*
D01*
G02X1005552Y368200I40528J0*
G01*
X1071880Y408517D02*
X1021080Y408517D01*
X417830Y408940D02*
X417941Y406394D01*
X418274Y403868D01*
X418825Y401380D01*
X419592Y398950D01*
X420567Y396595D01*
X421743Y394335D01*
X423113Y392186D01*
X424664Y390164D01*
X426385Y388285D01*
X428264Y386564D01*
X430286Y385013D01*
X432435Y383643D01*
X434695Y382467D01*
X437050Y381492D01*
X439480Y380725D01*
X441968Y380174D01*
X444494Y379841D01*
X447040Y379730D01*
X449586Y379841D01*
X452112Y380174D01*
X454600Y380725D01*
X457030Y381492D01*
X459385Y382467D01*
X461645Y383643D01*
X463794Y385013D01*
X465816Y386564D01*
X467695Y388285D01*
X469416Y390164D01*
X470967Y392186D01*
X472337Y394335D01*
X473513Y396595D01*
X474488Y398950D01*
X475255Y401380D01*
X475806Y403868D01*
X476139Y406394D01*
X476250Y408940D01*
X476139Y411486D01*
X475806Y414012D01*
X475255Y416500D01*
X474488Y418930D01*
X473513Y421285D01*
X472337Y423545D01*
X470967Y425694D01*
X469416Y427716D01*
X467695Y429595D01*
X465816Y431316D01*
X463794Y432867D01*
X461645Y434237D01*
X459385Y435413D01*
X457030Y436388D01*
X454600Y437155D01*
X452112Y437706D01*
X449586Y438039D01*
X447040Y438150D01*
X444494Y438039D01*
X441968Y437706D01*
X439480Y437155D01*
X437050Y436388D01*
X434695Y435413D01*
X432435Y434237D01*
X430286Y432867D01*
X428264Y431316D01*
X426385Y429595D01*
X424664Y427716D01*
X423113Y425694D01*
X421743Y423545D01*
X420567Y421285D01*
X419592Y418930D01*
X418825Y416500D01*
X418274Y414012D01*
X417941Y411486D01*
X417830Y408940D01*
X467898Y661394D02*
X471281Y663807D01*
X474440Y666505D01*
X477352Y669468D01*
X479995Y672674D01*
X482348Y676098D01*
X484394Y679714D01*
X486117Y683495D01*
X487504Y687412D01*
X488544Y691434D01*
X489230Y695532D01*
X489556Y699674D01*
X489520Y703828D01*
X489122Y707964D01*
X488364Y712049D01*
X487254Y716053D01*
X485799Y719944D01*
X484010Y723694D01*
X481902Y727274D01*
X479489Y730657D01*
X476791Y733816D01*
X473827Y736728D01*
X470621Y739371D01*
X467197Y741724D01*
X463581Y743770D01*
X459801Y745493D01*
X455884Y746880D01*
X451862Y747920D01*
X447764Y748606D01*
X443622Y748932D01*
X439467Y748896D01*
X435332Y748497D01*
X431247Y747740D01*
X427243Y746630D01*
X423351Y745175D01*
X419601Y743386D01*
X416022Y741277D01*
X412639Y738865D01*
X409480Y736166D01*
X406568Y733203D01*
X403925Y729997D01*
X401572Y726573D01*
X399526Y722957D01*
X397803Y719176D01*
X396416Y715260D01*
X395376Y711238D01*
X394690Y707140D01*
X394364Y702998D01*
X394400Y698843D01*
X394798Y694708D01*
X395556Y690622D01*
X396666Y686619D01*
X398121Y682727D01*
X399910Y678977D01*
X402018Y675397D01*
X404431Y672015D01*
X407129Y668856D01*
X410093Y665944D01*
X413299Y663301D01*
X416022Y661394D01*
X401832Y701436D02*
G75*
D01*
G02X401832Y701436I40528J0*
G01*
X416560Y661119D02*
X467360Y661119D01*
X961771Y492330D02*
X965021Y492330D01*
X965021Y437730D01*
X961771Y437730D01*
X961771Y492330D01*
X938810Y503575D02*
X964860Y503575D01*
X964860Y426235D01*
X938810Y426235D01*
X938810Y503575D01*
G54D12*
X424180Y594106D02*
X418084Y587756D01*
X412750Y592836D01*
X419100Y599186D01*
X424180Y594106D01*
X1039275Y723139D02*
X1022575Y723139D01*
X1022575Y739537D01*
X1039275Y739537D01*
X1039275Y723139D01*
X1014030Y723250D02*
X997330Y723250D01*
X997330Y739649D01*
X1014030Y739649D01*
X1014030Y723250D01*
X988880Y723370D02*
X972180Y723370D01*
X972180Y739769D01*
X988880Y739769D01*
X988880Y723370D01*
X963210Y723360D02*
X946510Y723360D01*
X946510Y739759D01*
X963210Y739759D01*
X963210Y723360D01*
X937890Y723360D02*
X921190Y723360D01*
X921190Y739759D01*
X937890Y739759D01*
X937890Y723360D01*
X912510Y723670D02*
X895810Y723670D01*
X895810Y740069D01*
X912510Y740069D01*
X912510Y723670D01*
X886840Y723960D02*
X870140Y723960D01*
X870140Y740359D01*
X886840Y740359D01*
X886840Y723960D01*
X861690Y723670D02*
X844990Y723670D01*
X844990Y740069D01*
X861690Y740069D01*
X861690Y723670D01*
X575660Y740110D02*
X592890Y740110D01*
X592890Y721940D01*
X575660Y721940D01*
X575660Y740110D01*
X601059Y740110D02*
X618289Y740110D01*
X618289Y721940D01*
X601059Y721940D01*
X601059Y740110D01*
X626458Y740110D02*
X643688Y740110D01*
X643688Y721940D01*
X626458Y721940D01*
X626458Y740110D01*
X651857Y740110D02*
X669087Y740110D01*
X669087Y721940D01*
X651857Y721940D01*
X651857Y740110D01*
X677256Y740110D02*
X694486Y740110D01*
X694486Y721940D01*
X677256Y721940D01*
X677256Y740110D01*
X702654Y740110D02*
X719884Y740110D01*
X719884Y721940D01*
X702654Y721940D01*
X702654Y740110D01*
X728053Y740110D02*
X745283Y740110D01*
X745283Y721940D01*
X728053Y721940D01*
X728053Y740110D01*
X753452Y740110D02*
X770682Y740110D01*
X770682Y721940D01*
X753452Y721940D01*
X753452Y740110D01*
X778851Y740110D02*
X796081Y740110D01*
X796081Y721940D01*
X778851Y721940D01*
X778851Y740110D01*
X804250Y740110D02*
X821480Y740110D01*
X821480Y721940D01*
X804250Y721940D01*
X804250Y740110D01*
X667605Y257302D02*
X684305Y257302D01*
X684305Y240903D01*
X667605Y240903D01*
X667605Y257302D01*
X692850Y257190D02*
X709550Y257190D01*
X709550Y240791D01*
X692850Y240791D01*
X692850Y257190D01*
X718000Y257070D02*
X734700Y257070D01*
X734700Y240671D01*
X718000Y240671D01*
X718000Y257070D01*
X743670Y257080D02*
X760370Y257080D01*
X760370Y240681D01*
X743670Y240681D01*
X743670Y257080D01*
X768990Y257080D02*
X785690Y257080D01*
X785690Y240681D01*
X768990Y240681D01*
X768990Y257080D01*
X794370Y256770D02*
X811070Y256770D01*
X811070Y240371D01*
X794370Y240371D01*
X794370Y256770D01*
X820040Y256480D02*
X836740Y256480D01*
X836740Y240081D01*
X820040Y240081D01*
X820040Y256480D01*
X845190Y256770D02*
X861890Y256770D01*
X861890Y240371D01*
X845190Y240371D01*
X845190Y256770D01*
X895980Y257350D02*
X912880Y257350D01*
X912880Y239920D01*
X895980Y239920D01*
X895980Y257350D01*
X1022850Y257350D02*
X1039750Y257350D01*
X1039750Y239920D01*
X1022850Y239920D01*
X1022850Y257350D01*
X921354Y257350D02*
X938254Y257350D01*
X938254Y239920D01*
X921354Y239920D01*
X921354Y257350D01*
X946728Y257350D02*
X963628Y257350D01*
X963628Y239920D01*
X946728Y239920D01*
X946728Y257350D01*
X972102Y257350D02*
X989002Y257350D01*
X989002Y239920D01*
X972102Y239920D01*
X972102Y257350D01*
X997476Y257350D02*
X1014376Y257350D01*
X1014376Y239920D01*
X997476Y239920D01*
X997476Y257350D01*
X464820Y432054D02*
X470916Y438404D01*
X476250Y433324D01*
X469900Y426974D01*
X464820Y432054D01*
G54D13*
X1043917Y718878D02*
X840717Y718878D01*
X840717Y744250D01*
X1043917Y744250D01*
X1043917Y718878D01*
X825457Y719234D02*
X571645Y719234D01*
X571645Y744108D01*
X825457Y744108D01*
X825457Y719234D01*
X662963Y261562D02*
X866163Y261562D01*
X866163Y236190D01*
X662963Y236190D01*
X662963Y261562D01*
X891807Y261473D02*
X1043877Y261473D01*
X1043877Y236304D01*
X891807Y236304D01*
X891807Y261473D01*
X763270Y562620D02*
X763270Y671820D01*
X684530Y671820D02*
X684530Y562620D01*
X763270Y562620D01*
X749380Y571580D02*
G75*
D01*
G02X749380Y571580I5000J0*
G01*
X763270Y671820D02*
X684530Y671820D01*
X625060Y415310D02*
X843060Y415310D01*
X843060Y494010D02*
X625060Y494010D01*
X625060Y415310D01*
X627540Y429260D02*
G75*
D01*
G02X627540Y429260I5000J0*
G01*
X843060Y415310D02*
X843060Y494010D01*
G54D14*
X579600Y356160D02*
X549600Y356160D01*
X549600Y375160D01*
X579600Y375160D01*
X579600Y356160D01*
X579600Y330760D02*
X549600Y330760D01*
X549600Y349760D01*
X579600Y349760D01*
X579600Y330760D01*
X538000Y680160D02*
X568000Y680160D01*
X568000Y661160D01*
X538000Y661160D01*
X538000Y680160D01*
X569440Y635560D02*
X539440Y635560D01*
X539440Y654560D01*
X569440Y654560D01*
X569440Y635560D01*
X538000Y705560D02*
X568000Y705560D01*
X568000Y686560D01*
X538000Y686560D01*
X538000Y705560D01*
X720880Y543000D02*
X750880Y543000D01*
X750880Y524000D01*
X720880Y524000D01*
X720880Y543000D01*
X725960Y370280D02*
X755960Y370280D01*
X755960Y351280D01*
X725960Y351280D01*
X725960Y370280D01*
X940360Y355120D02*
X959360Y355120D01*
X959360Y385120D01*
X940360Y385120D01*
X940360Y355120D01*
X889560Y329720D02*
X908560Y329720D01*
X908560Y359720D01*
X889560Y359720D01*
X889560Y329720D01*
X890380Y492900D02*
X909380Y492900D01*
X909380Y522900D01*
X890380Y522900D01*
X890380Y492900D01*
X945020Y313580D02*
X975020Y313580D01*
X975020Y294580D01*
X945020Y294580D01*
X945020Y313580D01*
X579600Y381560D02*
X549600Y381560D01*
X549600Y400560D01*
X579600Y400560D01*
X579600Y381560D01*
X604040Y304240D02*
X634040Y304240D01*
X634040Y285240D01*
X604040Y285240D01*
X604040Y304240D01*
G54D15*
X391160Y217001D02*
X391160Y271674D01*
X391160Y217001D02*
X461556Y217001D01*
X1095121Y217001D02*
X1024725Y217001D01*
X1095121Y217001D02*
X1095121Y271674D01*
X1095121Y763735D02*
X1095121Y709062D01*
X1095121Y763735D02*
X1024725Y763735D01*
X391160Y763735D02*
X461556Y763735D01*
X391160Y763735D02*
X391160Y709062D01*
X341160Y217001D02*
X241160Y217001D01*
X291160Y167001D02*
X291160Y267001D01*
X253660Y217001D02*
G75*
D01*
G02X253660Y217001I37500J0*
G01*
X1145121Y217001D02*
X1245121Y217001D01*
X1195121Y167001D02*
X1195121Y267001D01*
X1157621Y217001D02*
G75*
D01*
G02X1157621Y217001I37500J0*
G01*
X1182621Y217001D02*
G75*
D01*
G02X1182621Y217001I12500J0*
G01*
X341160Y763735D02*
X241160Y763735D01*
X291160Y713735D02*
X291160Y813735D01*
X253660Y763735D02*
G75*
D01*
G02X253660Y763735I37500J0*
G01*
X266160Y763735D02*
G75*
D01*
G02X266160Y763735I25000J0*
G01*
X278660Y763735D02*
G75*
D01*
G02X278660Y763735I12500J0*
G01*

M02*
