G04 Generated by Ultiboard 13.0 *
%FSLAX34Y34*%
%MOMM*%

%ADD10C,0.0001*%
%ADD11C,0.1000*%
%ADD12C,0.0100*%
%ADD13C,0.0010*%
%ADD14C,0.1270*%


G04 ColorRGB 000000 for the following layer *
%LNDrill Symbols-Copper Top-Copper Bottom*%
%LPD*%
G54D11*
X517400Y248920D02*
X549400Y248920D01*
X533400Y232920D02*
X533400Y264920D01*
X1038100Y299720D02*
X1070100Y299720D01*
X1054100Y283720D02*
X1054100Y315720D01*
X1038100Y579120D02*
X1070100Y579120D01*
X1054100Y563120D02*
X1054100Y595120D01*
X530100Y731520D02*
X562100Y731520D01*
X546100Y715520D02*
X546100Y747520D01*
X438368Y633948D02*
X445552Y641132D01*
X438368Y641132D02*
X445552Y633948D01*
X438368Y593308D02*
X445552Y600492D01*
X438368Y600492D02*
X445552Y593308D01*
X438368Y613628D02*
X445552Y620812D01*
X438368Y620812D02*
X445552Y613628D01*
X443448Y385028D02*
X450632Y392212D01*
X443448Y392212D02*
X450632Y385028D01*
X443448Y425668D02*
X450632Y432852D01*
X443448Y432852D02*
X450632Y425668D01*
X443448Y405348D02*
X450632Y412532D01*
X443448Y412532D02*
X450632Y405348D01*
X949960Y480137D02*
X957503Y487680D01*
X949960Y495223D01*
X942417Y487680D01*
X949960Y480137D01*
X949960Y457237D02*
X957503Y464780D01*
X949960Y472323D01*
X942417Y464780D01*
X949960Y457237D01*
X949960Y434337D02*
X957503Y441880D01*
X949960Y449423D01*
X942417Y441880D01*
X949960Y434337D01*
X1379621Y360235D02*
X1411621Y360235D01*
X1395621Y344235D02*
X1395621Y376235D01*
X1503288Y370949D02*
X1506621Y373092D01*
X1513288Y373092D01*
X1519954Y368807D01*
X1519954Y364521D01*
X1516621Y362378D01*
X1519954Y360235D01*
X1519954Y355949D01*
X1513288Y351664D01*
X1506621Y351664D01*
X1503288Y353807D01*
X1506621Y362378D02*
X1516621Y362378D01*
X1539954Y351664D02*
X1539954Y353807D01*
X1559954Y368807D02*
X1566621Y373092D01*
X1573288Y373092D01*
X1579954Y368807D01*
X1579954Y366664D01*
X1559954Y351664D01*
X1579954Y351664D01*
X1579954Y353807D01*
X1589954Y368807D02*
X1596621Y373092D01*
X1603288Y373092D01*
X1609954Y368807D01*
X1609954Y355949D01*
X1603288Y351664D01*
X1596621Y351664D01*
X1589954Y355949D01*
X1589954Y368807D01*
X1609954Y368807D02*
X1589954Y355949D01*
X1619954Y368807D02*
X1626621Y373092D01*
X1633288Y373092D01*
X1639954Y368807D01*
X1639954Y355949D01*
X1633288Y351664D01*
X1626621Y351664D01*
X1619954Y355949D01*
X1619954Y368807D01*
X1639954Y368807D02*
X1619954Y355949D01*
X1649954Y368807D02*
X1656621Y373092D01*
X1663288Y373092D01*
X1669954Y368807D01*
X1669954Y355949D01*
X1663288Y351664D01*
X1656621Y351664D01*
X1649954Y355949D01*
X1649954Y368807D01*
X1669954Y368807D02*
X1649954Y355949D01*
X1815954Y360235D02*
X1795954Y360235D01*
X1812621Y373092D01*
X1812621Y351664D01*
X1809288Y351664D02*
X1815954Y351664D01*
X1971954Y351664D02*
X1971954Y373092D01*
X1991954Y351664D01*
X1991954Y373092D01*
X2001954Y351664D02*
X2001954Y373092D01*
X2015288Y373092D01*
X2021954Y368807D01*
X2021954Y366664D01*
X2015288Y362378D01*
X2001954Y362378D01*
X2041954Y351664D02*
X2041954Y373092D01*
X2031954Y373092D02*
X2051954Y373092D01*
X2061954Y351664D02*
X2061954Y373092D01*
X2081954Y351664D02*
X2081954Y373092D01*
X2061954Y362378D02*
X2081954Y362378D01*
X2162954Y368807D02*
X2169621Y373092D01*
X2176288Y373092D01*
X2182954Y368807D01*
X2182954Y355949D01*
X2176288Y351664D01*
X2169621Y351664D01*
X2162954Y355949D01*
X2162954Y368807D01*
X2182954Y368807D02*
X2162954Y355949D01*
X2239621Y351664D02*
X2236288Y351664D01*
X2229621Y355949D01*
X2229621Y368807D01*
X2236288Y373092D01*
X2239621Y373092D01*
X2252954Y351664D02*
X2252954Y373092D01*
X2266288Y373092D01*
X2272954Y368807D01*
X2272954Y366664D01*
X2266288Y362378D01*
X2252954Y362378D01*
X2256288Y362378D02*
X2272954Y351664D01*
X2282954Y355949D02*
X2289621Y351664D01*
X2296288Y351664D01*
X2302954Y355949D01*
X2302954Y368807D01*
X2296288Y373092D01*
X2289621Y373092D01*
X2282954Y368807D01*
X2282954Y355949D01*
X2312954Y373092D02*
X2312954Y355949D01*
X2319621Y351664D01*
X2326288Y351664D01*
X2332954Y355949D01*
X2332954Y373092D01*
X2342954Y351664D02*
X2342954Y373092D01*
X2362954Y351664D01*
X2362954Y373092D01*
X2372954Y351664D02*
X2386288Y351664D01*
X2392954Y355949D01*
X2392954Y368807D01*
X2386288Y373092D01*
X2372954Y373092D01*
X2376288Y373092D02*
X2376288Y351664D01*
X2406288Y373092D02*
X2409621Y373092D01*
X2416288Y368807D01*
X2416288Y355949D01*
X2409621Y351664D01*
X2406288Y351664D01*
X1395621Y395692D02*
X1403164Y403235D01*
X1395621Y410779D01*
X1388078Y403235D01*
X1395621Y395692D01*
X1503288Y411807D02*
X1509954Y416092D01*
X1509954Y394664D01*
X1499954Y394664D02*
X1519954Y394664D01*
X1539954Y394664D02*
X1539954Y396807D01*
X1559954Y411807D02*
X1566621Y416092D01*
X1573288Y416092D01*
X1579954Y411807D01*
X1579954Y398949D01*
X1573288Y394664D01*
X1566621Y394664D01*
X1559954Y398949D01*
X1559954Y411807D01*
X1579954Y411807D02*
X1559954Y398949D01*
X1606621Y416092D02*
X1596621Y416092D01*
X1589954Y411807D01*
X1589954Y403235D01*
X1589954Y398949D01*
X1596621Y394664D01*
X1603288Y394664D01*
X1609954Y398949D01*
X1609954Y403235D01*
X1603288Y407521D01*
X1596621Y407521D01*
X1589954Y403235D01*
X1636621Y416092D02*
X1626621Y416092D01*
X1619954Y411807D01*
X1619954Y403235D01*
X1619954Y398949D01*
X1626621Y394664D01*
X1633288Y394664D01*
X1639954Y398949D01*
X1639954Y403235D01*
X1633288Y407521D01*
X1626621Y407521D01*
X1619954Y403235D01*
X1663288Y394664D02*
X1656621Y394664D01*
X1649954Y398949D01*
X1649954Y403235D01*
X1653288Y405378D01*
X1649954Y407521D01*
X1649954Y411807D01*
X1656621Y416092D01*
X1663288Y416092D01*
X1669954Y411807D01*
X1669954Y407521D01*
X1666621Y405378D01*
X1669954Y403235D01*
X1669954Y398949D01*
X1663288Y394664D01*
X1653288Y405378D02*
X1666621Y405378D01*
X1799288Y413949D02*
X1802621Y416092D01*
X1809288Y416092D01*
X1815954Y411807D01*
X1815954Y407521D01*
X1812621Y405378D01*
X1815954Y403235D01*
X1815954Y398949D01*
X1809288Y394664D01*
X1802621Y394664D01*
X1799288Y396807D01*
X1802621Y405378D02*
X1812621Y405378D01*
X1986954Y394664D02*
X1986954Y416092D01*
X2000288Y416092D01*
X2006954Y411807D01*
X2006954Y409664D01*
X2000288Y405378D01*
X1986954Y405378D01*
X2026954Y394664D02*
X2026954Y416092D01*
X2016954Y416092D02*
X2036954Y416092D01*
X2046954Y394664D02*
X2046954Y416092D01*
X2066954Y394664D02*
X2066954Y416092D01*
X2046954Y405378D02*
X2066954Y405378D01*
X2162954Y411807D02*
X2169621Y416092D01*
X2176288Y416092D01*
X2182954Y411807D01*
X2182954Y398949D01*
X2176288Y394664D01*
X2169621Y394664D01*
X2162954Y398949D01*
X2162954Y411807D01*
X2182954Y411807D02*
X2162954Y398949D01*
X2239621Y394664D02*
X2236288Y394664D01*
X2229621Y398949D01*
X2229621Y411807D01*
X2236288Y416092D01*
X2239621Y416092D01*
X2252954Y394664D02*
X2252954Y416092D01*
X2266288Y416092D01*
X2272954Y411807D01*
X2272954Y409664D01*
X2266288Y405378D01*
X2252954Y405378D01*
X2256288Y405378D02*
X2272954Y394664D01*
X2282954Y398949D02*
X2289621Y394664D01*
X2296288Y394664D01*
X2302954Y398949D01*
X2302954Y411807D01*
X2296288Y416092D01*
X2289621Y416092D01*
X2282954Y411807D01*
X2282954Y398949D01*
X2312954Y416092D02*
X2312954Y398949D01*
X2319621Y394664D01*
X2326288Y394664D01*
X2332954Y398949D01*
X2332954Y416092D01*
X2342954Y394664D02*
X2342954Y416092D01*
X2362954Y394664D01*
X2362954Y416092D01*
X2372954Y394664D02*
X2386288Y394664D01*
X2392954Y398949D01*
X2392954Y411807D01*
X2386288Y416092D01*
X2372954Y416092D01*
X2376288Y416092D02*
X2376288Y394664D01*
X2406288Y416092D02*
X2409621Y416092D01*
X2416288Y411807D01*
X2416288Y398949D01*
X2409621Y394664D01*
X2406288Y394664D01*
X1503288Y454807D02*
X1509954Y459092D01*
X1509954Y437664D01*
X1499954Y437664D02*
X1519954Y437664D01*
X1539954Y437664D02*
X1539954Y439807D01*
X1559954Y454807D02*
X1566621Y459092D01*
X1573288Y459092D01*
X1579954Y454807D01*
X1579954Y441949D01*
X1573288Y437664D01*
X1566621Y437664D01*
X1559954Y441949D01*
X1559954Y454807D01*
X1579954Y454807D02*
X1559954Y441949D01*
X1593288Y454807D02*
X1599954Y459092D01*
X1599954Y437664D01*
X1589954Y437664D02*
X1609954Y437664D01*
X1636621Y459092D02*
X1626621Y459092D01*
X1619954Y454807D01*
X1619954Y446235D01*
X1619954Y441949D01*
X1626621Y437664D01*
X1633288Y437664D01*
X1639954Y441949D01*
X1639954Y446235D01*
X1633288Y450521D01*
X1626621Y450521D01*
X1619954Y446235D01*
X1649954Y454807D02*
X1656621Y459092D01*
X1663288Y459092D01*
X1669954Y454807D01*
X1669954Y441949D01*
X1663288Y437664D01*
X1656621Y437664D01*
X1649954Y441949D01*
X1649954Y454807D01*
X1669954Y454807D02*
X1649954Y441949D01*
X1812621Y459092D02*
X1802621Y459092D01*
X1795954Y454807D01*
X1795954Y446235D01*
X1795954Y441949D01*
X1802621Y437664D01*
X1809288Y437664D01*
X1815954Y441949D01*
X1815954Y446235D01*
X1809288Y450521D01*
X1802621Y450521D01*
X1795954Y446235D01*
X1986954Y437664D02*
X1986954Y459092D01*
X2000288Y459092D01*
X2006954Y454807D01*
X2006954Y452664D01*
X2000288Y448378D01*
X1986954Y448378D01*
X2026954Y437664D02*
X2026954Y459092D01*
X2016954Y459092D02*
X2036954Y459092D01*
X2046954Y437664D02*
X2046954Y459092D01*
X2066954Y437664D02*
X2066954Y459092D01*
X2046954Y448378D02*
X2066954Y448378D01*
X2162954Y454807D02*
X2169621Y459092D01*
X2176288Y459092D01*
X2182954Y454807D01*
X2182954Y441949D01*
X2176288Y437664D01*
X2169621Y437664D01*
X2162954Y441949D01*
X2162954Y454807D01*
X2182954Y454807D02*
X2162954Y441949D01*
X2239621Y437664D02*
X2236288Y437664D01*
X2229621Y441949D01*
X2229621Y454807D01*
X2236288Y459092D01*
X2239621Y459092D01*
X2252954Y437664D02*
X2252954Y459092D01*
X2266288Y459092D01*
X2272954Y454807D01*
X2272954Y452664D01*
X2266288Y448378D01*
X2252954Y448378D01*
X2256288Y448378D02*
X2272954Y437664D01*
X2282954Y441949D02*
X2289621Y437664D01*
X2296288Y437664D01*
X2302954Y441949D01*
X2302954Y454807D01*
X2296288Y459092D01*
X2289621Y459092D01*
X2282954Y454807D01*
X2282954Y441949D01*
X2312954Y459092D02*
X2312954Y441949D01*
X2319621Y437664D01*
X2326288Y437664D01*
X2332954Y441949D01*
X2332954Y459092D01*
X2342954Y437664D02*
X2342954Y459092D01*
X2362954Y437664D01*
X2362954Y459092D01*
X2372954Y437664D02*
X2386288Y437664D01*
X2392954Y441949D01*
X2392954Y454807D01*
X2386288Y459092D01*
X2372954Y459092D01*
X2376288Y459092D02*
X2376288Y437664D01*
X2406288Y459092D02*
X2409621Y459092D01*
X2416288Y454807D01*
X2416288Y441949D01*
X2409621Y437664D01*
X2406288Y437664D01*
X1392029Y442643D02*
X1399213Y449827D01*
X1392029Y449827D02*
X1399213Y442643D01*
X1499954Y497807D02*
X1506621Y502092D01*
X1513288Y502092D01*
X1519954Y497807D01*
X1519954Y484949D01*
X1513288Y480664D01*
X1506621Y480664D01*
X1499954Y484949D01*
X1499954Y497807D01*
X1519954Y497807D02*
X1499954Y484949D01*
X1539954Y480664D02*
X1539954Y482807D01*
X1559954Y484949D02*
X1566621Y480664D01*
X1573288Y480664D01*
X1579954Y484949D01*
X1579954Y493521D01*
X1579954Y497807D01*
X1573288Y502092D01*
X1566621Y502092D01*
X1559954Y497807D01*
X1559954Y493521D01*
X1566621Y489235D01*
X1573288Y489235D01*
X1579954Y493521D01*
X1589954Y484949D02*
X1596621Y480664D01*
X1603288Y480664D01*
X1609954Y484949D01*
X1609954Y493521D01*
X1609954Y497807D01*
X1603288Y502092D01*
X1596621Y502092D01*
X1589954Y497807D01*
X1589954Y493521D01*
X1596621Y489235D01*
X1603288Y489235D01*
X1609954Y493521D01*
X1639954Y489235D02*
X1619954Y489235D01*
X1636621Y502092D01*
X1636621Y480664D01*
X1633288Y480664D02*
X1639954Y480664D01*
X1649954Y484949D02*
X1656621Y480664D01*
X1663288Y480664D01*
X1669954Y484949D01*
X1669954Y493521D01*
X1669954Y497807D01*
X1663288Y502092D01*
X1656621Y502092D01*
X1649954Y497807D01*
X1649954Y493521D01*
X1656621Y489235D01*
X1663288Y489235D01*
X1669954Y493521D01*
X1815954Y489235D02*
X1795954Y489235D01*
X1812621Y502092D01*
X1812621Y480664D01*
X1809288Y480664D02*
X1815954Y480664D01*
X1986954Y480664D02*
X1986954Y502092D01*
X2000288Y502092D01*
X2006954Y497807D01*
X2006954Y495664D01*
X2000288Y491378D01*
X1986954Y491378D01*
X2026954Y480664D02*
X2026954Y502092D01*
X2016954Y502092D02*
X2036954Y502092D01*
X2046954Y480664D02*
X2046954Y502092D01*
X2066954Y480664D02*
X2066954Y502092D01*
X2046954Y491378D02*
X2066954Y491378D01*
X2162954Y497807D02*
X2169621Y502092D01*
X2176288Y502092D01*
X2182954Y497807D01*
X2182954Y484949D01*
X2176288Y480664D01*
X2169621Y480664D01*
X2162954Y484949D01*
X2162954Y497807D01*
X2182954Y497807D02*
X2162954Y484949D01*
X2239621Y480664D02*
X2236288Y480664D01*
X2229621Y484949D01*
X2229621Y497807D01*
X2236288Y502092D01*
X2239621Y502092D01*
X2252954Y480664D02*
X2252954Y502092D01*
X2266288Y502092D01*
X2272954Y497807D01*
X2272954Y495664D01*
X2266288Y491378D01*
X2252954Y491378D01*
X2256288Y491378D02*
X2272954Y480664D01*
X2282954Y484949D02*
X2289621Y480664D01*
X2296288Y480664D01*
X2302954Y484949D01*
X2302954Y497807D01*
X2296288Y502092D01*
X2289621Y502092D01*
X2282954Y497807D01*
X2282954Y484949D01*
X2312954Y502092D02*
X2312954Y484949D01*
X2319621Y480664D01*
X2326288Y480664D01*
X2332954Y484949D01*
X2332954Y502092D01*
X2342954Y480664D02*
X2342954Y502092D01*
X2362954Y480664D01*
X2362954Y502092D01*
X2372954Y480664D02*
X2386288Y480664D01*
X2392954Y484949D01*
X2392954Y497807D01*
X2386288Y502092D01*
X2372954Y502092D01*
X2376288Y502092D02*
X2376288Y480664D01*
X2406288Y502092D02*
X2409621Y502092D01*
X2416288Y497807D01*
X2416288Y484949D01*
X2409621Y480664D01*
X2406288Y480664D01*
X1499954Y540807D02*
X1506621Y545092D01*
X1513288Y545092D01*
X1519954Y540807D01*
X1519954Y527949D01*
X1513288Y523664D01*
X1506621Y523664D01*
X1499954Y527949D01*
X1499954Y540807D01*
X1519954Y540807D02*
X1499954Y527949D01*
X1539954Y523664D02*
X1539954Y525807D01*
X1573288Y523664D02*
X1566621Y523664D01*
X1559954Y527949D01*
X1559954Y532235D01*
X1563288Y534378D01*
X1559954Y536521D01*
X1559954Y540807D01*
X1566621Y545092D01*
X1573288Y545092D01*
X1579954Y540807D01*
X1579954Y536521D01*
X1576621Y534378D01*
X1579954Y532235D01*
X1579954Y527949D01*
X1573288Y523664D01*
X1563288Y534378D02*
X1576621Y534378D01*
X1603288Y523664D02*
X1596621Y523664D01*
X1589954Y527949D01*
X1589954Y532235D01*
X1593288Y534378D01*
X1589954Y536521D01*
X1589954Y540807D01*
X1596621Y545092D01*
X1603288Y545092D01*
X1609954Y540807D01*
X1609954Y536521D01*
X1606621Y534378D01*
X1609954Y532235D01*
X1609954Y527949D01*
X1603288Y523664D01*
X1593288Y534378D02*
X1606621Y534378D01*
X1619954Y527949D02*
X1626621Y523664D01*
X1633288Y523664D01*
X1639954Y527949D01*
X1639954Y536521D01*
X1639954Y540807D01*
X1633288Y545092D01*
X1626621Y545092D01*
X1619954Y540807D01*
X1619954Y536521D01*
X1626621Y532235D01*
X1633288Y532235D01*
X1639954Y536521D01*
X1649954Y540807D02*
X1656621Y545092D01*
X1663288Y545092D01*
X1669954Y540807D01*
X1669954Y527949D01*
X1663288Y523664D01*
X1656621Y523664D01*
X1649954Y527949D01*
X1649954Y540807D01*
X1669954Y540807D02*
X1649954Y527949D01*
X1797621Y545092D02*
X1787621Y545092D01*
X1780954Y540807D01*
X1780954Y532235D01*
X1780954Y527949D01*
X1787621Y523664D01*
X1794288Y523664D01*
X1800954Y527949D01*
X1800954Y532235D01*
X1794288Y536521D01*
X1787621Y536521D01*
X1780954Y532235D01*
X1810954Y540807D02*
X1817621Y545092D01*
X1824288Y545092D01*
X1830954Y540807D01*
X1830954Y527949D01*
X1824288Y523664D01*
X1817621Y523664D01*
X1810954Y527949D01*
X1810954Y540807D01*
X1830954Y540807D02*
X1810954Y527949D01*
X1986954Y523664D02*
X1986954Y545092D01*
X2000288Y545092D01*
X2006954Y540807D01*
X2006954Y538664D01*
X2000288Y534378D01*
X1986954Y534378D01*
X2026954Y523664D02*
X2026954Y545092D01*
X2016954Y545092D02*
X2036954Y545092D01*
X2046954Y523664D02*
X2046954Y545092D01*
X2066954Y523664D02*
X2066954Y545092D01*
X2046954Y534378D02*
X2066954Y534378D01*
X2162954Y540807D02*
X2169621Y545092D01*
X2176288Y545092D01*
X2182954Y540807D01*
X2182954Y527949D01*
X2176288Y523664D01*
X2169621Y523664D01*
X2162954Y527949D01*
X2162954Y540807D01*
X2182954Y540807D02*
X2162954Y527949D01*
X2239621Y523664D02*
X2236288Y523664D01*
X2229621Y527949D01*
X2229621Y540807D01*
X2236288Y545092D01*
X2239621Y545092D01*
X2252954Y523664D02*
X2252954Y545092D01*
X2266288Y545092D01*
X2272954Y540807D01*
X2272954Y538664D01*
X2266288Y534378D01*
X2252954Y534378D01*
X2256288Y534378D02*
X2272954Y523664D01*
X2282954Y527949D02*
X2289621Y523664D01*
X2296288Y523664D01*
X2302954Y527949D01*
X2302954Y540807D01*
X2296288Y545092D01*
X2289621Y545092D01*
X2282954Y540807D01*
X2282954Y527949D01*
X2312954Y545092D02*
X2312954Y527949D01*
X2319621Y523664D01*
X2326288Y523664D01*
X2332954Y527949D01*
X2332954Y545092D01*
X2342954Y523664D02*
X2342954Y545092D01*
X2362954Y523664D01*
X2362954Y545092D01*
X2372954Y523664D02*
X2386288Y523664D01*
X2392954Y527949D01*
X2392954Y540807D01*
X2386288Y545092D01*
X2372954Y545092D01*
X2376288Y545092D02*
X2376288Y523664D01*
X2406288Y545092D02*
X2409621Y545092D01*
X2416288Y540807D01*
X2416288Y527949D01*
X2409621Y523664D01*
X2406288Y523664D01*
X1499954Y583807D02*
X1506621Y588092D01*
X1513288Y588092D01*
X1519954Y583807D01*
X1519954Y570949D01*
X1513288Y566664D01*
X1506621Y566664D01*
X1499954Y570949D01*
X1499954Y583807D01*
X1519954Y583807D02*
X1499954Y570949D01*
X1539954Y566664D02*
X1539954Y568807D01*
X1573288Y566664D02*
X1566621Y566664D01*
X1559954Y570949D01*
X1559954Y575235D01*
X1563288Y577378D01*
X1559954Y579521D01*
X1559954Y583807D01*
X1566621Y588092D01*
X1573288Y588092D01*
X1579954Y583807D01*
X1579954Y579521D01*
X1576621Y577378D01*
X1579954Y575235D01*
X1579954Y570949D01*
X1573288Y566664D01*
X1563288Y577378D02*
X1576621Y577378D01*
X1589954Y583807D02*
X1596621Y588092D01*
X1603288Y588092D01*
X1609954Y583807D01*
X1609954Y570949D01*
X1603288Y566664D01*
X1596621Y566664D01*
X1589954Y570949D01*
X1589954Y583807D01*
X1609954Y583807D02*
X1589954Y570949D01*
X1619954Y583807D02*
X1626621Y588092D01*
X1633288Y588092D01*
X1639954Y583807D01*
X1639954Y570949D01*
X1633288Y566664D01*
X1626621Y566664D01*
X1619954Y570949D01*
X1619954Y583807D01*
X1639954Y583807D02*
X1619954Y570949D01*
X1649954Y583807D02*
X1656621Y588092D01*
X1663288Y588092D01*
X1669954Y583807D01*
X1669954Y570949D01*
X1663288Y566664D01*
X1656621Y566664D01*
X1649954Y570949D01*
X1649954Y583807D01*
X1669954Y583807D02*
X1649954Y570949D01*
X1780954Y583807D02*
X1787621Y588092D01*
X1794288Y588092D01*
X1800954Y583807D01*
X1800954Y581664D01*
X1780954Y566664D01*
X1800954Y566664D01*
X1800954Y568807D01*
X1827621Y588092D02*
X1817621Y588092D01*
X1810954Y583807D01*
X1810954Y575235D01*
X1810954Y570949D01*
X1817621Y566664D01*
X1824288Y566664D01*
X1830954Y570949D01*
X1830954Y575235D01*
X1824288Y579521D01*
X1817621Y579521D01*
X1810954Y575235D01*
X1986954Y566664D02*
X1986954Y588092D01*
X2000288Y588092D01*
X2006954Y583807D01*
X2006954Y581664D01*
X2000288Y577378D01*
X1986954Y577378D01*
X2026954Y566664D02*
X2026954Y588092D01*
X2016954Y588092D02*
X2036954Y588092D01*
X2046954Y566664D02*
X2046954Y588092D01*
X2066954Y566664D02*
X2066954Y588092D01*
X2046954Y577378D02*
X2066954Y577378D01*
X2162954Y583807D02*
X2169621Y588092D01*
X2176288Y588092D01*
X2182954Y583807D01*
X2182954Y570949D01*
X2176288Y566664D01*
X2169621Y566664D01*
X2162954Y570949D01*
X2162954Y583807D01*
X2182954Y583807D02*
X2162954Y570949D01*
X2239621Y566664D02*
X2236288Y566664D01*
X2229621Y570949D01*
X2229621Y583807D01*
X2236288Y588092D01*
X2239621Y588092D01*
X2252954Y566664D02*
X2252954Y588092D01*
X2266288Y588092D01*
X2272954Y583807D01*
X2272954Y581664D01*
X2266288Y577378D01*
X2252954Y577378D01*
X2256288Y577378D02*
X2272954Y566664D01*
X2282954Y570949D02*
X2289621Y566664D01*
X2296288Y566664D01*
X2302954Y570949D01*
X2302954Y583807D01*
X2296288Y588092D01*
X2289621Y588092D01*
X2282954Y583807D01*
X2282954Y570949D01*
X2312954Y588092D02*
X2312954Y570949D01*
X2319621Y566664D01*
X2326288Y566664D01*
X2332954Y570949D01*
X2332954Y588092D01*
X2342954Y566664D02*
X2342954Y588092D01*
X2362954Y566664D01*
X2362954Y588092D01*
X2372954Y566664D02*
X2386288Y566664D01*
X2392954Y570949D01*
X2392954Y583807D01*
X2386288Y588092D01*
X2372954Y588092D01*
X2376288Y588092D02*
X2376288Y566664D01*
X2406288Y588092D02*
X2409621Y588092D01*
X2416288Y583807D01*
X2416288Y570949D01*
X2409621Y566664D01*
X2406288Y566664D01*
X1499954Y626807D02*
X1506621Y631092D01*
X1513288Y631092D01*
X1519954Y626807D01*
X1519954Y613949D01*
X1513288Y609664D01*
X1506621Y609664D01*
X1499954Y613949D01*
X1499954Y626807D01*
X1519954Y626807D02*
X1499954Y613949D01*
X1539954Y609664D02*
X1539954Y611807D01*
X1576621Y631092D02*
X1566621Y631092D01*
X1559954Y626807D01*
X1559954Y618235D01*
X1559954Y613949D01*
X1566621Y609664D01*
X1573288Y609664D01*
X1579954Y613949D01*
X1579954Y618235D01*
X1573288Y622521D01*
X1566621Y622521D01*
X1559954Y618235D01*
X1589954Y626807D02*
X1596621Y631092D01*
X1603288Y631092D01*
X1609954Y626807D01*
X1609954Y613949D01*
X1603288Y609664D01*
X1596621Y609664D01*
X1589954Y613949D01*
X1589954Y626807D01*
X1609954Y626807D02*
X1589954Y613949D01*
X1619954Y626807D02*
X1626621Y631092D01*
X1633288Y631092D01*
X1639954Y626807D01*
X1639954Y613949D01*
X1633288Y609664D01*
X1626621Y609664D01*
X1619954Y613949D01*
X1619954Y626807D01*
X1639954Y626807D02*
X1619954Y613949D01*
X1649954Y626807D02*
X1656621Y631092D01*
X1663288Y631092D01*
X1669954Y626807D01*
X1669954Y613949D01*
X1663288Y609664D01*
X1656621Y609664D01*
X1649954Y613949D01*
X1649954Y626807D01*
X1669954Y626807D02*
X1649954Y613949D01*
X1784288Y626807D02*
X1790954Y631092D01*
X1790954Y609664D01*
X1780954Y609664D02*
X1800954Y609664D01*
X1814288Y628949D02*
X1817621Y631092D01*
X1824288Y631092D01*
X1830954Y626807D01*
X1830954Y622521D01*
X1827621Y620378D01*
X1830954Y618235D01*
X1830954Y613949D01*
X1824288Y609664D01*
X1817621Y609664D01*
X1814288Y611807D01*
X1817621Y620378D02*
X1827621Y620378D01*
X1986954Y609664D02*
X1986954Y631092D01*
X2000288Y631092D01*
X2006954Y626807D01*
X2006954Y624664D01*
X2000288Y620378D01*
X1986954Y620378D01*
X2026954Y609664D02*
X2026954Y631092D01*
X2016954Y631092D02*
X2036954Y631092D01*
X2046954Y609664D02*
X2046954Y631092D01*
X2066954Y609664D02*
X2066954Y631092D01*
X2046954Y620378D02*
X2066954Y620378D01*
X2162954Y626807D02*
X2169621Y631092D01*
X2176288Y631092D01*
X2182954Y626807D01*
X2182954Y613949D01*
X2176288Y609664D01*
X2169621Y609664D01*
X2162954Y613949D01*
X2162954Y626807D01*
X2182954Y626807D02*
X2162954Y613949D01*
X2239621Y609664D02*
X2236288Y609664D01*
X2229621Y613949D01*
X2229621Y626807D01*
X2236288Y631092D01*
X2239621Y631092D01*
X2252954Y609664D02*
X2252954Y631092D01*
X2266288Y631092D01*
X2272954Y626807D01*
X2272954Y624664D01*
X2266288Y620378D01*
X2252954Y620378D01*
X2256288Y620378D02*
X2272954Y609664D01*
X2282954Y613949D02*
X2289621Y609664D01*
X2296288Y609664D01*
X2302954Y613949D01*
X2302954Y626807D01*
X2296288Y631092D01*
X2289621Y631092D01*
X2282954Y626807D01*
X2282954Y613949D01*
X2312954Y631092D02*
X2312954Y613949D01*
X2319621Y609664D01*
X2326288Y609664D01*
X2332954Y613949D01*
X2332954Y631092D01*
X2342954Y609664D02*
X2342954Y631092D01*
X2362954Y609664D01*
X2362954Y631092D01*
X2372954Y609664D02*
X2386288Y609664D01*
X2392954Y613949D01*
X2392954Y626807D01*
X2386288Y631092D01*
X2372954Y631092D01*
X2376288Y631092D02*
X2376288Y609664D01*
X2406288Y631092D02*
X2409621Y631092D01*
X2416288Y626807D01*
X2416288Y613949D01*
X2409621Y609664D01*
X2406288Y609664D01*
G54D12*
X448797Y290682D02*
G75*
D01*
G02X448797Y290682I4445J0*
G01*
X448797Y316082D02*
G75*
D01*
G02X448797Y316082I4445J0*
G01*
X848995Y731520D02*
G75*
D01*
G02X848995Y731520I4445J0*
G01*
X1026265Y726545D02*
X1036215Y726545D01*
X1036215Y736495D01*
X1026265Y736495D01*
X1026265Y726545D01*
X975995Y731520D02*
G75*
D01*
G02X975995Y731520I4445J0*
G01*
X1001395Y731520D02*
G75*
D01*
G02X1001395Y731520I4445J0*
G01*
X950595Y731520D02*
G75*
D01*
G02X950595Y731520I4445J0*
G01*
X899795Y731520D02*
G75*
D01*
G02X899795Y731520I4445J0*
G01*
X925195Y731520D02*
G75*
D01*
G02X925195Y731520I4445J0*
G01*
X874395Y731520D02*
G75*
D01*
G02X874395Y731520I4445J0*
G01*
X732155Y731520D02*
G75*
D01*
G02X732155Y731520I4445J0*
G01*
X807825Y726545D02*
X817775Y726545D01*
X817775Y736495D01*
X807825Y736495D01*
X807825Y726545D01*
X757555Y731520D02*
G75*
D01*
G02X757555Y731520I4445J0*
G01*
X782955Y731520D02*
G75*
D01*
G02X782955Y731520I4445J0*
G01*
X681355Y731520D02*
G75*
D01*
G02X681355Y731520I4445J0*
G01*
X706755Y731520D02*
G75*
D01*
G02X706755Y731520I4445J0*
G01*
X655955Y731520D02*
G75*
D01*
G02X655955Y731520I4445J0*
G01*
X605155Y731520D02*
G75*
D01*
G02X605155Y731520I4445J0*
G01*
X630555Y731520D02*
G75*
D01*
G02X630555Y731520I4445J0*
G01*
X579755Y731520D02*
G75*
D01*
G02X579755Y731520I4445J0*
G01*
X848995Y248920D02*
G75*
D01*
G02X848995Y248920I4445J0*
G01*
X670665Y243945D02*
X680615Y243945D01*
X680615Y253895D01*
X670665Y253895D01*
X670665Y243945D01*
X721995Y248920D02*
G75*
D01*
G02X721995Y248920I4445J0*
G01*
X696595Y248920D02*
G75*
D01*
G02X696595Y248920I4445J0*
G01*
X747395Y248920D02*
G75*
D01*
G02X747395Y248920I4445J0*
G01*
X798195Y248920D02*
G75*
D01*
G02X798195Y248920I4445J0*
G01*
X772795Y248920D02*
G75*
D01*
G02X772795Y248920I4445J0*
G01*
X823595Y248920D02*
G75*
D01*
G02X823595Y248920I4445J0*
G01*
X925195Y248920D02*
G75*
D01*
G02X925195Y248920I4445J0*
G01*
X899265Y243945D02*
X909215Y243945D01*
X909215Y253895D01*
X899265Y253895D01*
X899265Y243945D01*
X950595Y248920D02*
G75*
D01*
G02X950595Y248920I4445J0*
G01*
X1001395Y248920D02*
G75*
D01*
G02X1001395Y248920I4445J0*
G01*
X975995Y248920D02*
G75*
D01*
G02X975995Y248920I4445J0*
G01*
X1026795Y248920D02*
G75*
D01*
G02X1026795Y248920I4445J0*
G01*
X1036955Y523240D02*
G75*
D01*
G02X1036955Y523240I4445J0*
G01*
X1036955Y497840D02*
G75*
D01*
G02X1036955Y497840I4445J0*
G01*
X1042035Y355600D02*
G75*
D01*
G02X1042035Y355600I4445J0*
G01*
X1042035Y381000D02*
G75*
D01*
G02X1042035Y381000I4445J0*
G01*
X437515Y714036D02*
G75*
D01*
G02X437515Y714036I4445J0*
G01*
X437515Y688636D02*
G75*
D01*
G02X437515Y688636I4445J0*
G01*
X515600Y361760D02*
X523600Y361760D01*
X519600Y368588D01*
X515600Y361760D01*
X605600Y361660D02*
X613600Y361660D01*
X609600Y368488D01*
X605600Y361660D01*
X515600Y336360D02*
X523600Y336360D01*
X519600Y343188D01*
X515600Y336360D01*
X605600Y336260D02*
X613600Y336260D01*
X609600Y343088D01*
X605600Y336260D01*
X594000Y666560D02*
X602000Y666560D01*
X598000Y673388D01*
X594000Y666560D01*
X504000Y666660D02*
X512000Y666660D01*
X508000Y673488D01*
X504000Y666660D01*
X505440Y641160D02*
X513440Y641160D01*
X509440Y647988D01*
X505440Y641160D01*
X595440Y641060D02*
X603440Y641060D01*
X599440Y647888D01*
X595440Y641060D01*
X594000Y691960D02*
X602000Y691960D01*
X598000Y698788D01*
X594000Y691960D01*
X504000Y692060D02*
X512000Y692060D01*
X508000Y698888D01*
X504000Y692060D01*
X681355Y579120D02*
G75*
D01*
G02X681355Y579120I4445J0*
G01*
X757555Y604520D02*
G75*
D01*
G02X757555Y604520I4445J0*
G01*
X757555Y655320D02*
G75*
D01*
G02X757555Y655320I4445J0*
G01*
X757555Y629920D02*
G75*
D01*
G02X757555Y629920I4445J0*
G01*
X681355Y655320D02*
G75*
D01*
G02X681355Y655320I4445J0*
G01*
X681355Y604520D02*
G75*
D01*
G02X681355Y604520I4445J0*
G01*
X681355Y629920D02*
G75*
D01*
G02X681355Y629920I4445J0*
G01*
X757555Y579120D02*
G75*
D01*
G02X757555Y579120I4445J0*
G01*
X768160Y526860D02*
X776160Y526860D01*
X772160Y533688D01*
X768160Y526860D01*
X694500Y526860D02*
X702500Y526860D01*
X698500Y533688D01*
X694500Y526860D01*
X768160Y369380D02*
X776160Y369380D01*
X772160Y376208D01*
X768160Y369380D01*
X694500Y369380D02*
X702500Y369380D01*
X698500Y376208D01*
X694500Y369380D01*
X945960Y411120D02*
X953960Y411120D01*
X949960Y417948D01*
X945960Y411120D01*
X945860Y321120D02*
X953860Y321120D01*
X949860Y327948D01*
X945860Y321120D01*
X826580Y293180D02*
X834580Y293180D01*
X830580Y300008D01*
X826580Y293180D01*
X864680Y293180D02*
X872680Y293180D01*
X868680Y300008D01*
X864680Y293180D01*
X826580Y318580D02*
X834580Y318580D01*
X830580Y325408D01*
X826580Y318580D01*
X895880Y458900D02*
X903880Y458900D01*
X899880Y465728D01*
X895880Y458900D01*
X640715Y492760D02*
G75*
D01*
G02X640715Y492760I4445J0*
G01*
X691515Y416560D02*
G75*
D01*
G02X691515Y416560I4445J0*
G01*
X666115Y416560D02*
G75*
D01*
G02X666115Y416560I4445J0*
G01*
X716915Y416560D02*
G75*
D01*
G02X716915Y416560I4445J0*
G01*
X767715Y416560D02*
G75*
D01*
G02X767715Y416560I4445J0*
G01*
X742315Y416560D02*
G75*
D01*
G02X742315Y416560I4445J0*
G01*
X793115Y416560D02*
G75*
D01*
G02X793115Y416560I4445J0*
G01*
X818515Y416560D02*
G75*
D01*
G02X818515Y416560I4445J0*
G01*
X793115Y492760D02*
G75*
D01*
G02X793115Y492760I4445J0*
G01*
X716915Y492760D02*
G75*
D01*
G02X716915Y492760I4445J0*
G01*
X691515Y492760D02*
G75*
D01*
G02X691515Y492760I4445J0*
G01*
X666115Y492760D02*
G75*
D01*
G02X666115Y492760I4445J0*
G01*
X767715Y492760D02*
G75*
D01*
G02X767715Y492760I4445J0*
G01*
X742315Y492760D02*
G75*
D01*
G02X742315Y492760I4445J0*
G01*
X818515Y492760D02*
G75*
D01*
G02X818515Y492760I4445J0*
G01*
X640715Y416560D02*
G75*
D01*
G02X640715Y416560I4445J0*
G01*
X981520Y298260D02*
X989520Y298260D01*
X985520Y305088D01*
X981520Y298260D01*
X948500Y298260D02*
X956500Y298260D01*
X952500Y305088D01*
X948500Y298260D01*
X515600Y387160D02*
X523600Y387160D01*
X519600Y393988D01*
X515600Y387160D01*
X605600Y387060D02*
X613600Y387060D01*
X609600Y393888D01*
X605600Y387060D01*
X868833Y516643D02*
X868833Y517929D01*
X869500Y518786D01*
X870167Y518786D01*
X870833Y517929D01*
X870833Y516643D01*
X868833Y517286D02*
X870833Y517286D01*
X867000Y517500D02*
G75*
D01*
G02X867000Y517500I3000J0*
G01*
X748833Y516643D02*
X748833Y517929D01*
X749500Y518786D01*
X750167Y518786D01*
X750833Y517929D01*
X750833Y516643D01*
X748833Y517286D02*
X750833Y517286D01*
X747000Y517500D02*
G75*
D01*
G02X747000Y517500I3000J0*
G01*
X531333Y614143D02*
X531333Y615429D01*
X532000Y616286D01*
X532667Y616286D01*
X533333Y615429D01*
X533333Y614143D01*
X531333Y614786D02*
X533333Y614786D01*
X529500Y615000D02*
G75*
D01*
G02X529500Y615000I3000J0*
G01*
X778833Y554143D02*
X778833Y555429D01*
X779500Y556286D01*
X780167Y556286D01*
X780833Y555429D01*
X780833Y554143D01*
X778833Y554786D02*
X780833Y554786D01*
X777000Y555000D02*
G75*
D01*
G02X777000Y555000I3000J0*
G01*
X868833Y494143D02*
X868833Y495429D01*
X869500Y496286D01*
X870167Y496286D01*
X870833Y495429D01*
X870833Y494143D01*
X868833Y494786D02*
X870833Y494786D01*
X867000Y495000D02*
G75*
D01*
G02X867000Y495000I3000J0*
G01*
X763833Y681643D02*
X763833Y682929D01*
X764500Y683786D01*
X765167Y683786D01*
X765833Y682929D01*
X765833Y681643D01*
X763833Y682286D02*
X765833Y682286D01*
X762000Y682500D02*
G75*
D01*
G02X762000Y682500I3000J0*
G01*
X801333Y674143D02*
X801333Y675429D01*
X802000Y676286D01*
X802667Y676286D01*
X803333Y675429D01*
X803333Y674143D01*
X801333Y674786D02*
X803333Y674786D01*
X799500Y675000D02*
G75*
D01*
G02X799500Y675000I3000J0*
G01*
X846333Y464143D02*
X846333Y465429D01*
X847000Y466286D01*
X847667Y466286D01*
X848333Y465429D01*
X848333Y464143D01*
X846333Y464786D02*
X848333Y464786D01*
X844500Y465000D02*
G75*
D01*
G02X844500Y465000I3000J0*
G01*
X726333Y456643D02*
X726333Y457929D01*
X727000Y458786D01*
X727667Y458786D01*
X728333Y457929D01*
X728333Y456643D01*
X726333Y457286D02*
X728333Y457286D01*
X724500Y457500D02*
G75*
D01*
G02X724500Y457500I3000J0*
G01*
X726333Y531643D02*
X726333Y532929D01*
X727000Y533786D01*
X727667Y533786D01*
X728333Y532929D01*
X728333Y531643D01*
X726333Y532286D02*
X728333Y532286D01*
X724500Y532500D02*
G75*
D01*
G02X724500Y532500I3000J0*
G01*
X816333Y636643D02*
X816333Y637929D01*
X817000Y638786D01*
X817667Y638786D01*
X818333Y637929D01*
X818333Y636643D01*
X816333Y637286D02*
X818333Y637286D01*
X814500Y637500D02*
G75*
D01*
G02X814500Y637500I3000J0*
G01*
X741333Y689143D02*
X741333Y690429D01*
X742000Y691286D01*
X742667Y691286D01*
X743333Y690429D01*
X743333Y689143D01*
X741333Y689786D02*
X743333Y689786D01*
X739500Y690000D02*
G75*
D01*
G02X739500Y690000I3000J0*
G01*
X861333Y411643D02*
X861333Y412929D01*
X862000Y413786D01*
X862667Y413786D01*
X863333Y412929D01*
X863333Y411643D01*
X861333Y412286D02*
X863333Y412286D01*
X859500Y412500D02*
G75*
D01*
G02X859500Y412500I3000J0*
G01*
X760540Y298260D02*
X768540Y298260D01*
X764540Y305088D01*
X760540Y298260D01*
X895160Y437960D02*
X903160Y437960D01*
X899160Y444788D01*
X895160Y437960D01*
X1390646Y484261D02*
X1400596Y484261D01*
X1400596Y494210D01*
X1390646Y494210D01*
X1390646Y484261D01*
X1391176Y532235D02*
G75*
D01*
G02X1391176Y532235I4445J0*
G01*
X1391621Y571235D02*
X1399621Y571235D01*
X1395621Y578064D01*
X1391621Y571235D01*
X1394454Y617378D02*
X1394454Y618664D01*
X1395121Y619521D01*
X1395788Y619521D01*
X1396454Y618664D01*
X1396454Y617378D01*
X1394454Y618021D02*
X1396454Y618021D01*
X1392621Y618235D02*
G75*
D01*
G02X1392621Y618235I3000J0*
G01*
G04 ColorRGB 00FFFF for the following layer *
%LNBoard Outline*%
%LPD*%
G54D10*
G54D13*
X1044100Y223520D02*
X403700Y223520D01*
X393700Y233520D02*
X393700Y746920D01*
X1054100Y248920D02*
X1054100Y233520D01*
X1079500Y274320D02*
X1054100Y248920D01*
X1079500Y601980D02*
X1079500Y274320D01*
X1054100Y627380D02*
X1079500Y601980D01*
X1054100Y741680D02*
X1054100Y627380D01*
X1038860Y756920D02*
X1054100Y741680D01*
X403700Y756920D02*
X1038860Y756920D01*
X393700Y233520D02*
X393738Y232648D01*
X393852Y231783D01*
X394041Y230932D01*
X394303Y230100D01*
X394637Y229294D01*
X395040Y228520D01*
X395509Y227784D01*
X396040Y227092D01*
X396629Y226449D01*
X397272Y225859D01*
X397965Y225328D01*
X398700Y224860D01*
X399474Y224457D01*
X400280Y224123D01*
X401112Y223861D01*
X401964Y223672D01*
X402829Y223558D01*
X403700Y223520D01*
X1044100Y223520D02*
X1044972Y223558D01*
X1045837Y223672D01*
X1046688Y223861D01*
X1047520Y224123D01*
X1048326Y224457D01*
X1049100Y224860D01*
X1049836Y225329D01*
X1050528Y225860D01*
X1051171Y226449D01*
X1051761Y227092D01*
X1052292Y227785D01*
X1052760Y228520D01*
X1053163Y229294D01*
X1053497Y230100D01*
X1053759Y230932D01*
X1053948Y231784D01*
X1054062Y232649D01*
X1054100Y233520D01*
X403700Y756920D02*
X402828Y756882D01*
X401963Y756768D01*
X401112Y756579D01*
X400280Y756317D01*
X399474Y755983D01*
X398700Y755580D01*
X397964Y755111D01*
X397272Y754580D01*
X396629Y753991D01*
X396039Y753348D01*
X395508Y752655D01*
X395040Y751920D01*
X394637Y751146D01*
X394303Y750340D01*
X394041Y749508D01*
X393852Y748656D01*
X393738Y747791D01*
X393700Y746920D01*
G54D14*
X391160Y217001D02*
X391160Y271674D01*
X391160Y217001D02*
X461556Y217001D01*
X1095121Y217001D02*
X1024725Y217001D01*
X1095121Y217001D02*
X1095121Y271674D01*
X1095121Y763735D02*
X1095121Y709062D01*
X1095121Y763735D02*
X1024725Y763735D01*
X391160Y763735D02*
X461556Y763735D01*
X391160Y763735D02*
X391160Y709062D01*
X341160Y217001D02*
X241160Y217001D01*
X291160Y167001D02*
X291160Y267001D01*
X253660Y217001D02*
G75*
D01*
G02X253660Y217001I37500J0*
G01*
X1145121Y217001D02*
X1245121Y217001D01*
X1195121Y167001D02*
X1195121Y267001D01*
X1157621Y217001D02*
G75*
D01*
G02X1157621Y217001I37500J0*
G01*
X1182621Y217001D02*
G75*
D01*
G02X1182621Y217001I12500J0*
G01*
X341160Y763735D02*
X241160Y763735D01*
X291160Y713735D02*
X291160Y813735D01*
X253660Y763735D02*
G75*
D01*
G02X253660Y763735I37500J0*
G01*
X266160Y763735D02*
G75*
D01*
G02X266160Y763735I25000J0*
G01*
X278660Y763735D02*
G75*
D01*
G02X278660Y763735I12500J0*
G01*
G04 ColorRGB 66FFCC for the following layer *
%LNLegend Description*%
%LPD*%
G54D11*
X1300121Y338735D02*
X2465121Y338735D01*
X2465121Y768735D01*
X1300121Y768735D01*
X1300121Y338735D01*
X1491121Y682735D02*
X1491121Y338735D01*
X1682121Y682735D02*
X1682121Y338735D01*
X1933121Y682735D02*
X1933121Y338735D01*
X2124121Y682735D02*
X2124121Y338735D01*
X2465121Y682735D02*
X2465121Y338735D01*
X1300121Y381735D02*
X2465121Y381735D01*
X1300121Y424735D02*
X2465121Y424735D01*
X1300121Y467735D02*
X2465121Y467735D01*
X1300121Y510735D02*
X2465121Y510735D01*
X1300121Y553735D02*
X2465121Y553735D01*
X1300121Y596735D02*
X2465121Y596735D01*
X1300121Y639735D02*
X2465121Y639735D01*
X1308954Y656949D02*
X1315621Y652664D01*
X1322288Y652664D01*
X1328954Y656949D01*
X1308954Y669807D01*
X1315621Y674092D01*
X1322288Y674092D01*
X1328954Y669807D01*
X1338954Y646235D02*
X1342288Y646235D01*
X1358954Y667664D01*
X1338954Y667664D02*
X1348954Y654807D01*
X1368954Y652664D02*
X1368954Y665521D01*
X1368954Y667664D01*
X1368954Y665521D02*
X1372288Y667664D01*
X1375621Y667664D01*
X1378954Y665521D01*
X1382288Y667664D01*
X1385621Y667664D01*
X1388954Y665521D01*
X1388954Y652664D01*
X1378954Y665521D02*
X1378954Y652664D01*
X1398954Y656949D02*
X1405621Y652664D01*
X1412288Y652664D01*
X1418954Y656949D01*
X1418954Y661235D01*
X1412288Y665521D01*
X1405621Y665521D01*
X1398954Y661235D01*
X1398954Y674092D02*
X1398954Y652664D01*
X1428954Y656949D02*
X1435621Y652664D01*
X1442288Y652664D01*
X1448954Y656949D01*
X1448954Y663378D01*
X1442288Y667664D01*
X1435621Y667664D01*
X1428954Y663378D01*
X1428954Y656949D01*
X1462288Y674092D02*
X1462288Y656949D01*
X1468954Y652664D01*
X1529954Y656949D02*
X1536621Y652664D01*
X1543288Y652664D01*
X1549954Y656949D01*
X1529954Y669807D01*
X1536621Y674092D01*
X1543288Y674092D01*
X1549954Y669807D01*
X1569954Y652664D02*
X1569954Y665521D01*
X1569954Y669807D02*
X1569954Y671949D01*
X1589954Y667664D02*
X1609954Y667664D01*
X1589954Y652664D01*
X1609954Y652664D01*
X1639954Y656949D02*
X1633288Y652664D01*
X1626621Y652664D01*
X1619954Y656949D01*
X1619954Y663378D01*
X1626621Y667664D01*
X1633288Y667664D01*
X1639954Y663378D01*
X1636621Y661235D01*
X1619954Y661235D01*
X1690954Y656949D02*
X1697621Y652664D01*
X1704288Y652664D01*
X1710954Y656949D01*
X1710954Y669807D01*
X1704288Y674092D01*
X1697621Y674092D01*
X1690954Y669807D01*
X1690954Y656949D01*
X1704288Y656949D02*
X1710954Y652664D01*
X1720954Y667664D02*
X1720954Y656949D01*
X1727621Y652664D01*
X1734288Y652664D01*
X1740954Y656949D01*
X1740954Y667664D01*
X1740954Y656949D02*
X1740954Y652664D01*
X1754288Y667664D02*
X1764288Y667664D01*
X1767621Y665521D01*
X1767621Y654807D01*
X1764288Y652664D01*
X1754288Y652664D01*
X1750954Y654807D01*
X1750954Y659092D01*
X1754288Y661235D01*
X1767621Y661235D01*
X1767621Y654807D02*
X1770954Y652664D01*
X1780954Y652664D02*
X1780954Y665521D01*
X1780954Y667664D01*
X1780954Y665521D02*
X1784288Y667664D01*
X1790954Y667664D01*
X1794288Y665521D01*
X1794288Y652664D01*
X1827621Y654807D02*
X1824288Y652664D01*
X1820954Y654807D01*
X1820954Y674092D01*
X1814288Y667664D02*
X1827621Y667664D01*
X1850954Y652664D02*
X1850954Y665521D01*
X1850954Y669807D02*
X1850954Y671949D01*
X1887621Y654807D02*
X1884288Y652664D01*
X1880954Y654807D01*
X1880954Y674092D01*
X1874288Y667664D02*
X1887621Y667664D01*
X1900954Y646235D02*
X1904288Y646235D01*
X1920954Y667664D01*
X1900954Y667664D02*
X1910954Y654807D01*
X1941954Y652664D02*
X1941954Y674092D01*
X1955288Y674092D01*
X1961954Y669807D01*
X1961954Y667664D01*
X1955288Y663378D01*
X1941954Y663378D01*
X1975288Y674092D02*
X1975288Y656949D01*
X1981954Y652664D01*
X2005288Y667664D02*
X2015288Y667664D01*
X2018621Y665521D01*
X2018621Y654807D01*
X2015288Y652664D01*
X2005288Y652664D01*
X2001954Y654807D01*
X2001954Y659092D01*
X2005288Y661235D01*
X2018621Y661235D01*
X2018621Y654807D02*
X2021954Y652664D01*
X2048621Y654807D02*
X2045288Y652664D01*
X2041954Y654807D01*
X2041954Y674092D01*
X2035288Y667664D02*
X2048621Y667664D01*
X2081954Y656949D02*
X2075288Y652664D01*
X2068621Y652664D01*
X2061954Y656949D01*
X2061954Y663378D01*
X2068621Y667664D01*
X2075288Y667664D01*
X2081954Y663378D01*
X2078621Y661235D01*
X2061954Y661235D01*
X2111954Y656949D02*
X2105288Y652664D01*
X2098621Y652664D01*
X2091954Y656949D01*
X2091954Y661235D01*
X2098621Y665521D01*
X2105288Y665521D01*
X2111954Y661235D01*
X2111954Y674092D02*
X2111954Y652664D01*
X2132954Y656949D02*
X2139621Y652664D01*
X2146288Y652664D01*
X2152954Y656949D01*
X2132954Y669807D01*
X2139621Y674092D01*
X2146288Y674092D01*
X2152954Y669807D01*
X2166288Y674092D02*
X2166288Y656949D01*
X2172954Y652664D01*
X2192954Y656949D02*
X2199621Y652664D01*
X2206288Y652664D01*
X2212954Y656949D01*
X2212954Y663378D01*
X2206288Y667664D01*
X2199621Y667664D01*
X2192954Y663378D01*
X2192954Y656949D01*
X2239621Y654807D02*
X2236288Y652664D01*
X2232954Y654807D01*
X2232954Y674092D01*
X2226288Y667664D02*
X2239621Y667664D01*
X2282954Y674092D02*
X2282954Y652664D01*
X2302954Y652664D01*
X2332954Y656949D02*
X2326288Y652664D01*
X2319621Y652664D01*
X2312954Y656949D01*
X2312954Y663378D01*
X2319621Y667664D01*
X2326288Y667664D01*
X2332954Y663378D01*
X2329621Y661235D01*
X2312954Y661235D01*
X2342954Y652664D02*
X2342954Y665521D01*
X2342954Y667664D01*
X2342954Y665521D02*
X2346288Y667664D01*
X2352954Y667664D01*
X2356288Y665521D01*
X2356288Y652664D01*
X2372954Y650521D02*
X2379621Y646235D01*
X2386288Y646235D01*
X2392954Y650521D01*
X2392954Y656949D01*
X2392954Y663378D01*
X2386288Y667664D01*
X2379621Y667664D01*
X2372954Y663378D01*
X2372954Y656949D01*
X2379621Y652664D01*
X2386288Y652664D01*
X2392954Y656949D01*
X2419621Y654807D02*
X2416288Y652664D01*
X2412954Y654807D01*
X2412954Y674092D01*
X2406288Y667664D02*
X2419621Y667664D01*
X2432954Y663378D02*
X2439621Y667664D01*
X2446288Y667664D01*
X2452954Y663378D01*
X2452954Y652664D01*
X2432954Y674092D02*
X2432954Y652664D01*
X1300121Y682735D02*
X2465121Y682735D01*
X1600954Y695664D02*
X1600954Y708521D01*
X1607621Y717092D01*
X1614288Y717092D01*
X1620954Y708521D01*
X1620954Y695664D01*
X1600954Y702092D02*
X1620954Y702092D01*
X1634288Y717092D02*
X1634288Y699949D01*
X1640954Y695664D01*
X1664288Y717092D02*
X1664288Y699949D01*
X1670954Y695664D01*
X1720954Y710664D02*
X1720954Y699949D01*
X1727621Y695664D01*
X1734288Y695664D01*
X1740954Y699949D01*
X1740954Y710664D01*
X1740954Y699949D02*
X1740954Y695664D01*
X1750954Y695664D02*
X1750954Y708521D01*
X1750954Y710664D01*
X1750954Y708521D02*
X1754288Y710664D01*
X1760954Y710664D01*
X1764288Y708521D01*
X1764288Y695664D01*
X1790954Y695664D02*
X1790954Y708521D01*
X1790954Y712807D02*
X1790954Y714949D01*
X1827621Y697807D02*
X1824288Y695664D01*
X1820954Y697807D01*
X1820954Y717092D01*
X1814288Y710664D02*
X1827621Y710664D01*
X1840954Y699949D02*
X1847621Y695664D01*
X1854288Y695664D01*
X1860954Y699949D01*
X1840954Y706378D01*
X1847621Y710664D01*
X1854288Y710664D01*
X1860954Y706378D01*
X1904288Y710664D02*
X1914288Y710664D01*
X1917621Y708521D01*
X1917621Y697807D01*
X1914288Y695664D01*
X1904288Y695664D01*
X1900954Y697807D01*
X1900954Y702092D01*
X1904288Y704235D01*
X1917621Y704235D01*
X1917621Y697807D02*
X1920954Y695664D01*
X1930954Y704235D02*
X1940954Y710664D01*
X1944288Y710664D01*
X1950954Y706378D01*
X1930954Y695664D02*
X1930954Y710664D01*
X1980954Y699949D02*
X1974288Y695664D01*
X1967621Y695664D01*
X1960954Y699949D01*
X1960954Y706378D01*
X1967621Y710664D01*
X1974288Y710664D01*
X1980954Y706378D01*
X1977621Y704235D01*
X1960954Y704235D01*
X2030954Y695664D02*
X2030954Y708521D01*
X2030954Y712807D02*
X2030954Y714949D01*
X2050954Y695664D02*
X2050954Y708521D01*
X2050954Y710664D01*
X2050954Y708521D02*
X2054288Y710664D01*
X2060954Y710664D01*
X2064288Y708521D01*
X2064288Y695664D01*
X2110954Y695664D02*
X2110954Y708521D01*
X2110954Y710664D01*
X2110954Y708521D02*
X2114288Y710664D01*
X2117621Y710664D01*
X2120954Y708521D01*
X2124288Y710664D01*
X2127621Y710664D01*
X2130954Y708521D01*
X2130954Y695664D01*
X2120954Y708521D02*
X2120954Y695664D01*
X2140954Y695664D02*
X2140954Y708521D01*
X2140954Y710664D01*
X2140954Y708521D02*
X2144288Y710664D01*
X2147621Y710664D01*
X2150954Y708521D01*
X2154288Y710664D01*
X2157621Y710664D01*
X2160954Y708521D01*
X2160954Y695664D01*
X2150954Y708521D02*
X2150954Y695664D01*
X1300121Y725735D02*
X2465121Y725735D01*
X1705954Y738664D02*
X1719288Y738664D01*
X1725954Y742949D01*
X1725954Y755807D01*
X1719288Y760092D01*
X1705954Y760092D01*
X1709288Y760092D02*
X1709288Y738664D01*
X1735954Y747235D02*
X1745954Y753664D01*
X1749288Y753664D01*
X1755954Y749378D01*
X1735954Y738664D02*
X1735954Y753664D01*
X1775954Y738664D02*
X1775954Y751521D01*
X1775954Y755807D02*
X1775954Y757949D01*
X1799288Y760092D02*
X1799288Y742949D01*
X1805954Y738664D01*
X1829288Y760092D02*
X1829288Y742949D01*
X1835954Y738664D01*
X1885954Y760092D02*
X1885954Y738664D01*
X1905954Y738664D01*
X1935954Y742949D02*
X1929288Y738664D01*
X1922621Y738664D01*
X1915954Y742949D01*
X1915954Y749378D01*
X1922621Y753664D01*
X1929288Y753664D01*
X1935954Y749378D01*
X1932621Y747235D01*
X1915954Y747235D01*
X1945954Y736521D02*
X1952621Y732235D01*
X1959288Y732235D01*
X1965954Y736521D01*
X1965954Y742949D01*
X1965954Y749378D01*
X1959288Y753664D01*
X1952621Y753664D01*
X1945954Y749378D01*
X1945954Y742949D01*
X1952621Y738664D01*
X1959288Y738664D01*
X1965954Y742949D01*
X1995954Y742949D02*
X1989288Y738664D01*
X1982621Y738664D01*
X1975954Y742949D01*
X1975954Y749378D01*
X1982621Y753664D01*
X1989288Y753664D01*
X1995954Y749378D01*
X1992621Y747235D01*
X1975954Y747235D01*
X2005954Y738664D02*
X2005954Y751521D01*
X2005954Y753664D01*
X2005954Y751521D02*
X2009288Y753664D01*
X2015954Y753664D01*
X2019288Y751521D01*
X2019288Y738664D01*
X2055954Y742949D02*
X2049288Y738664D01*
X2042621Y738664D01*
X2035954Y742949D01*
X2035954Y747235D01*
X2042621Y751521D01*
X2049288Y751521D01*
X2055954Y747235D01*
X2055954Y760092D02*
X2055954Y738664D01*

M02*
