G04 Generated by Ultiboard 13.0 *
%FSLAX34Y34*%
%MOMM*%

%ADD11C,0.0010*%
%ADD12C,0.1270*%


G04 ColorRGB 00FFFF for the following layer *
%LNBoard Outline*%
%LPD*%
G54D10*
G54D11*
X1044100Y223520D02*
X403700Y223520D01*
X393700Y233520D02*
X393700Y746920D01*
X1054100Y248920D02*
X1054100Y233520D01*
X1079500Y274320D02*
X1054100Y248920D01*
X1079500Y601980D02*
X1079500Y274320D01*
X1054100Y627380D02*
X1079500Y601980D01*
X1054100Y741680D02*
X1054100Y627380D01*
X1038860Y756920D02*
X1054100Y741680D01*
X403700Y756920D02*
X1038860Y756920D01*
X393700Y233520D02*
X393738Y232648D01*
X393852Y231783D01*
X394041Y230932D01*
X394303Y230100D01*
X394637Y229294D01*
X395040Y228520D01*
X395509Y227784D01*
X396040Y227092D01*
X396629Y226449D01*
X397272Y225859D01*
X397965Y225328D01*
X398700Y224860D01*
X399474Y224457D01*
X400280Y224123D01*
X401112Y223861D01*
X401964Y223672D01*
X402829Y223558D01*
X403700Y223520D01*
X1044100Y223520D02*
X1044972Y223558D01*
X1045837Y223672D01*
X1046688Y223861D01*
X1047520Y224123D01*
X1048326Y224457D01*
X1049100Y224860D01*
X1049836Y225329D01*
X1050528Y225860D01*
X1051171Y226449D01*
X1051761Y227092D01*
X1052292Y227785D01*
X1052760Y228520D01*
X1053163Y229294D01*
X1053497Y230100D01*
X1053759Y230932D01*
X1053948Y231784D01*
X1054062Y232649D01*
X1054100Y233520D01*
X403700Y756920D02*
X402828Y756882D01*
X401963Y756768D01*
X401112Y756579D01*
X400280Y756317D01*
X399474Y755983D01*
X398700Y755580D01*
X397964Y755111D01*
X397272Y754580D01*
X396629Y753991D01*
X396039Y753348D01*
X395508Y752655D01*
X395040Y751920D01*
X394637Y751146D01*
X394303Y750340D01*
X394041Y749508D01*
X393852Y748656D01*
X393738Y747791D01*
X393700Y746920D01*
G54D12*
X391160Y217001D02*
X391160Y271674D01*
X391160Y217001D02*
X461556Y217001D01*
X1095121Y217001D02*
X1024725Y217001D01*
X1095121Y217001D02*
X1095121Y271674D01*
X1095121Y763735D02*
X1095121Y709062D01*
X1095121Y763735D02*
X1024725Y763735D01*
X391160Y763735D02*
X461556Y763735D01*
X391160Y763735D02*
X391160Y709062D01*
X341160Y217001D02*
X241160Y217001D01*
X291160Y167001D02*
X291160Y267001D01*
X253660Y217001D02*
G75*
D01*
G02X253660Y217001I37500J0*
G01*
X1145121Y217001D02*
X1245121Y217001D01*
X1195121Y167001D02*
X1195121Y267001D01*
X1157621Y217001D02*
G75*
D01*
G02X1157621Y217001I37500J0*
G01*
X1182621Y217001D02*
G75*
D01*
G02X1182621Y217001I12500J0*
G01*
X341160Y763735D02*
X241160Y763735D01*
X291160Y713735D02*
X291160Y813735D01*
X253660Y763735D02*
G75*
D01*
G02X253660Y763735I37500J0*
G01*
X266160Y763735D02*
G75*
D01*
G02X266160Y763735I25000J0*
G01*
X278660Y763735D02*
G75*
D01*
G02X278660Y763735I12500J0*
G01*

M02*
